<svg width="183" height="17" viewBox="0 0 183 17" fill="none" xmlns="http://www.w3.org/2000/svg">
<path d="M9.248 4.2H10.648V14H9.248V4.2ZM3.62 14H2.22V4.2H3.62V14ZM9.374 9.632H3.48V8.414H9.374V9.632ZM16.5633 14.084C15.8167 14.084 15.154 13.9207 14.5753 13.594C13.9967 13.2673 13.5393 12.8193 13.2033 12.25C12.8673 11.6713 12.6993 11.018 12.6993 10.29C12.6993 9.55267 12.8673 8.89933 13.2033 8.33C13.5393 7.76067 13.9967 7.31733 14.5753 7C15.154 6.67333 15.8167 6.51 16.5633 6.51C17.3007 6.51 17.9587 6.67333 18.5373 7C19.1253 7.31733 19.5827 7.76067 19.9093 8.33C20.2453 8.89 20.4133 9.54333 20.4133 10.29C20.4133 11.0273 20.2453 11.6807 19.9093 12.25C19.5827 12.8193 19.1253 13.2673 18.5373 13.594C17.9587 13.9207 17.3007 14.084 16.5633 14.084ZM16.5633 12.908C17.0393 12.908 17.464 12.8007 17.8373 12.586C18.22 12.3713 18.5187 12.068 18.7333 11.676C18.948 11.2747 19.0553 10.8127 19.0553 10.29C19.0553 9.758 18.948 9.30067 18.7333 8.918C18.5187 8.526 18.22 8.22267 17.8373 8.008C17.464 7.79333 17.0393 7.686 16.5633 7.686C16.0873 7.686 15.6627 7.79333 15.2893 8.008C14.916 8.22267 14.6173 8.526 14.3933 8.918C14.1693 9.30067 14.0573 9.758 14.0573 10.29C14.0573 10.8127 14.1693 11.2747 14.3933 11.676C14.6173 12.068 14.916 12.3713 15.2893 12.586C15.6627 12.8007 16.0873 12.908 16.5633 12.908ZM31.554 6.51C32.1514 6.51 32.6787 6.62667 33.136 6.86C33.5934 7.09333 33.948 7.448 34.2 7.924C34.4614 8.4 34.592 9.002 34.592 9.73V14H33.248V9.884C33.248 9.16533 33.08 8.624 32.744 8.26C32.408 7.896 31.9367 7.714 31.33 7.714C30.882 7.714 30.49 7.80733 30.154 7.994C29.818 8.18067 29.5567 8.456 29.37 8.82C29.1927 9.184 29.104 9.63667 29.104 10.178V14H27.76V9.884C27.76 9.16533 27.592 8.624 27.256 8.26C26.9294 7.896 26.458 7.714 25.842 7.714C25.4034 7.714 25.016 7.80733 24.68 7.994C24.344 8.18067 24.0827 8.456 23.896 8.82C23.7094 9.184 23.616 9.63667 23.616 10.178V14H22.272V6.58H23.56V8.554L23.35 8.05C23.5834 7.56467 23.9427 7.18667 24.428 6.916C24.9134 6.64533 25.478 6.51 26.122 6.51C26.8314 6.51 27.4427 6.68733 27.956 7.042C28.4694 7.38733 28.8054 7.91467 28.964 8.624L28.418 8.4C28.642 7.83067 29.034 7.37333 29.594 7.028C30.154 6.68267 30.8074 6.51 31.554 6.51ZM40.369 14.084C39.5757 14.084 38.8757 13.9207 38.269 13.594C37.6717 13.2673 37.205 12.8193 36.869 12.25C36.5423 11.6807 36.379 11.0273 36.379 10.29C36.379 9.55267 36.5377 8.89933 36.855 8.33C37.1817 7.76067 37.625 7.31733 38.185 7C38.7543 6.67333 39.3937 6.51 40.103 6.51C40.8217 6.51 41.4563 6.66867 42.007 6.986C42.5577 7.30333 42.987 7.75133 43.295 8.33C43.6123 8.89933 43.771 9.56667 43.771 10.332C43.771 10.388 43.7663 10.4533 43.757 10.528C43.757 10.6027 43.7523 10.6727 43.743 10.738H37.429V9.772H43.043L42.497 10.108C42.5063 9.632 42.4083 9.20733 42.203 8.834C41.9977 8.46067 41.713 8.17133 41.349 7.966C40.9943 7.75133 40.579 7.644 40.103 7.644C39.6363 7.644 39.221 7.75133 38.857 7.966C38.493 8.17133 38.2083 8.46533 38.003 8.848C37.7977 9.22133 37.695 9.65067 37.695 10.136V10.36C37.695 10.8547 37.807 11.298 38.031 11.69C38.2643 12.0727 38.5863 12.3713 38.997 12.586C39.4077 12.8007 39.879 12.908 40.411 12.908C40.8497 12.908 41.2463 12.8333 41.601 12.684C41.965 12.5347 42.2823 12.3107 42.553 12.012L43.295 12.88C42.959 13.272 42.539 13.5707 42.035 13.776C41.5403 13.9813 40.985 14.084 40.369 14.084Z" fill="black"/>
<path d="M0.75 15.75H44.359V16.45H0.75V15.75Z" fill="black"/>
<path d="M80.316 14V4.2H81.814L87.96 11.746H87.218V4.2H89.024V14H87.526L81.38 6.454H82.122V14H80.316ZM94.996 14.098C94.1653 14.098 93.4373 13.9347 92.812 13.608C92.196 13.272 91.7153 12.8147 91.37 12.236C91.034 11.6573 90.866 10.9993 90.866 10.262C90.866 9.51533 91.0293 8.85733 91.356 8.288C91.692 7.70933 92.1493 7.25667 92.728 6.93C93.316 6.60333 93.9833 6.44 94.73 6.44C95.458 6.44 96.1067 6.59867 96.676 6.916C97.2453 7.23333 97.6933 7.68133 98.02 8.26C98.3467 8.83867 98.51 9.52 98.51 10.304C98.51 10.3787 98.5053 10.4627 98.496 10.556C98.496 10.6493 98.4913 10.738 98.482 10.822H92.252V9.66H97.558L96.872 10.024C96.8813 9.59467 96.7927 9.21667 96.606 8.89C96.4193 8.56333 96.1627 8.30667 95.836 8.12C95.5187 7.93333 95.15 7.84 94.73 7.84C94.3007 7.84 93.9227 7.93333 93.596 8.12C93.2787 8.30667 93.0267 8.568 92.84 8.904C92.6627 9.23067 92.574 9.618 92.574 10.066V10.346C92.574 10.794 92.6767 11.1907 92.882 11.536C93.0873 11.8813 93.3767 12.1473 93.75 12.334C94.1233 12.5207 94.5527 12.614 95.038 12.614C95.458 12.614 95.836 12.5487 96.172 12.418C96.508 12.2873 96.8067 12.082 97.068 11.802L98.006 12.88C97.67 13.272 97.2453 13.5753 96.732 13.79C96.228 13.9953 95.6493 14.098 94.996 14.098ZM102.501 14.098C101.876 14.098 101.274 14.0187 100.695 13.86C100.126 13.692 99.673 13.4913 99.337 13.258L100.009 11.928C100.345 12.1427 100.746 12.32 101.213 12.46C101.68 12.6 102.146 12.67 102.613 12.67C103.164 12.67 103.56 12.5953 103.803 12.446C104.055 12.2967 104.181 12.096 104.181 11.844C104.181 11.6387 104.097 11.4847 103.929 11.382C103.761 11.27 103.542 11.186 103.271 11.13C103 11.074 102.697 11.0227 102.361 10.976C102.034 10.9293 101.703 10.8687 101.367 10.794C101.04 10.71 100.742 10.5933 100.471 10.444C100.2 10.2853 99.981 10.0753 99.813 9.814C99.645 9.55267 99.561 9.20733 99.561 8.778C99.561 8.302 99.6963 7.89133 99.967 7.546C100.238 7.19133 100.616 6.92067 101.101 6.734C101.596 6.538 102.179 6.44 102.851 6.44C103.355 6.44 103.864 6.496 104.377 6.608C104.89 6.72 105.315 6.87867 105.651 7.084L104.979 8.414C104.624 8.19933 104.265 8.05467 103.901 7.98C103.546 7.896 103.192 7.854 102.837 7.854C102.305 7.854 101.908 7.93333 101.647 8.092C101.395 8.25067 101.269 8.45133 101.269 8.694C101.269 8.918 101.353 9.086 101.521 9.198C101.689 9.31 101.908 9.39867 102.179 9.464C102.45 9.52933 102.748 9.58533 103.075 9.632C103.411 9.66933 103.742 9.73 104.069 9.814C104.396 9.898 104.694 10.0147 104.965 10.164C105.245 10.304 105.469 10.5047 105.637 10.766C105.805 11.0273 105.889 11.368 105.889 11.788C105.889 12.2547 105.749 12.6607 105.469 13.006C105.198 13.3513 104.811 13.622 104.307 13.818C103.803 14.0047 103.201 14.098 102.501 14.098ZM110.21 14.098C109.389 14.098 108.754 13.888 108.306 13.468C107.858 13.0387 107.634 12.4087 107.634 11.578V4.872H109.384V11.536C109.384 11.8907 109.473 12.166 109.65 12.362C109.837 12.558 110.093 12.656 110.42 12.656C110.812 12.656 111.139 12.5533 111.4 12.348L111.89 13.594C111.685 13.762 111.433 13.888 111.134 13.972C110.835 14.056 110.527 14.098 110.21 14.098ZM106.402 7.98V6.58H111.386V7.98H106.402ZM113.33 14V3.612H115.08V14H113.33ZM120.891 14.098C120.06 14.098 119.332 13.9347 118.707 13.608C118.091 13.272 117.61 12.8147 117.265 12.236C116.929 11.6573 116.761 10.9993 116.761 10.262C116.761 9.51533 116.924 8.85733 117.251 8.288C117.587 7.70933 118.044 7.25667 118.623 6.93C119.211 6.60333 119.878 6.44 120.625 6.44C121.353 6.44 122.001 6.59867 122.571 6.916C123.14 7.23333 123.588 7.68133 123.915 8.26C124.241 8.83867 124.405 9.52 124.405 10.304C124.405 10.3787 124.4 10.4627 124.391 10.556C124.391 10.6493 124.386 10.738 124.377 10.822H118.147V9.66H123.453L122.767 10.024C122.776 9.59467 122.687 9.21667 122.501 8.89C122.314 8.56333 122.057 8.30667 121.731 8.12C121.413 7.93333 121.045 7.84 120.625 7.84C120.195 7.84 119.817 7.93333 119.491 8.12C119.173 8.30667 118.921 8.568 118.735 8.904C118.557 9.23067 118.469 9.618 118.469 10.066V10.346C118.469 10.794 118.571 11.1907 118.777 11.536C118.982 11.8813 119.271 12.1473 119.645 12.334C120.018 12.5207 120.447 12.614 120.933 12.614C121.353 12.614 121.731 12.5487 122.067 12.418C122.403 12.2873 122.701 12.082 122.963 11.802L123.901 12.88C123.565 13.272 123.14 13.5753 122.627 13.79C122.123 13.9953 121.544 14.098 120.891 14.098ZM134.659 14.14C133.912 14.14 133.217 14.0187 132.573 13.776C131.938 13.524 131.383 13.174 130.907 12.726C130.44 12.2687 130.076 11.732 129.815 11.116C129.553 10.5 129.423 9.828 129.423 9.1C129.423 8.372 129.553 7.7 129.815 7.084C130.076 6.468 130.445 5.936 130.921 5.488C131.397 5.03067 131.952 4.68067 132.587 4.438C133.221 4.186 133.917 4.06 134.673 4.06C135.475 4.06 136.208 4.2 136.871 4.48C137.533 4.75067 138.093 5.15667 138.551 5.698L137.375 6.804C137.02 6.42133 136.623 6.13667 136.185 5.95C135.746 5.754 135.27 5.656 134.757 5.656C134.243 5.656 133.772 5.74 133.343 5.908C132.923 6.076 132.554 6.314 132.237 6.622C131.929 6.93 131.686 7.294 131.509 7.714C131.341 8.134 131.257 8.596 131.257 9.1C131.257 9.604 131.341 10.066 131.509 10.486C131.686 10.906 131.929 11.27 132.237 11.578C132.554 11.886 132.923 12.124 133.343 12.292C133.772 12.46 134.243 12.544 134.757 12.544C135.27 12.544 135.746 12.4507 136.185 12.264C136.623 12.068 137.02 11.774 137.375 11.382L138.551 12.502C138.093 13.034 137.533 13.44 136.871 13.72C136.208 14 135.471 14.14 134.659 14.14ZM139.167 11.774V10.514L143.997 4.2H145.943L141.183 10.514L140.273 10.234H148.043V11.774H139.167ZM144.543 14V11.774L144.599 10.234V8.26H146.307V14H144.543ZM154.182 14.14C153.435 14.14 152.74 14.0187 152.096 13.776C151.461 13.524 150.906 13.174 150.43 12.726C149.963 12.2687 149.599 11.732 149.338 11.116C149.077 10.5 148.946 9.828 148.946 9.1C148.946 8.372 149.077 7.7 149.338 7.084C149.599 6.468 149.968 5.936 150.444 5.488C150.92 5.03067 151.475 4.68067 152.11 4.438C152.745 4.186 153.44 4.06 154.196 4.06C154.999 4.06 155.731 4.2 156.394 4.48C157.057 4.75067 157.617 5.15667 158.074 5.698L156.898 6.804C156.543 6.42133 156.147 6.13667 155.708 5.95C155.269 5.754 154.793 5.656 154.28 5.656C153.767 5.656 153.295 5.74 152.866 5.908C152.446 6.076 152.077 6.314 151.76 6.622C151.452 6.93 151.209 7.294 151.032 7.714C150.864 8.134 150.78 8.596 150.78 9.1C150.78 9.604 150.864 10.066 151.032 10.486C151.209 10.906 151.452 11.27 151.76 11.578C152.077 11.886 152.446 12.124 152.866 12.292C153.295 12.46 153.767 12.544 154.28 12.544C154.793 12.544 155.269 12.4507 155.708 12.264C156.147 12.068 156.543 11.774 156.898 11.382L158.074 12.502C157.617 13.034 157.057 13.44 156.394 13.72C155.731 14 154.994 14.14 154.182 14.14ZM168.265 14.14C167.5 14.14 166.795 14.0187 166.151 13.776C165.516 13.524 164.961 13.174 164.485 12.726C164.009 12.2687 163.64 11.732 163.379 11.116C163.118 10.5 162.987 9.828 162.987 9.1C162.987 8.372 163.118 7.7 163.379 7.084C163.64 6.468 164.009 5.936 164.485 5.488C164.97 5.03067 165.535 4.68067 166.179 4.438C166.823 4.186 167.528 4.06 168.293 4.06C169.124 4.06 169.87 4.19533 170.533 4.466C171.205 4.73667 171.77 5.13333 172.227 5.656L171.079 6.776C170.696 6.39333 170.281 6.11333 169.833 5.936C169.394 5.74933 168.909 5.656 168.377 5.656C167.864 5.656 167.388 5.74 166.949 5.908C166.51 6.076 166.132 6.314 165.815 6.622C165.498 6.93 165.25 7.294 165.073 7.714C164.905 8.134 164.821 8.596 164.821 9.1C164.821 9.59467 164.905 10.052 165.073 10.472C165.25 10.892 165.498 11.2607 165.815 11.578C166.132 11.886 166.506 12.124 166.935 12.292C167.364 12.46 167.84 12.544 168.363 12.544C168.848 12.544 169.315 12.4693 169.763 12.32C170.22 12.1613 170.654 11.9 171.065 11.536L172.101 12.894C171.588 13.3047 170.99 13.6173 170.309 13.832C169.637 14.0373 168.956 14.14 168.265 14.14ZM170.379 12.656V8.988H172.101V12.894L170.379 12.656ZM177.694 14.098C176.928 14.098 176.247 13.9347 175.65 13.608C175.052 13.272 174.581 12.8147 174.236 12.236C173.89 11.6573 173.718 10.9993 173.718 10.262C173.718 9.51533 173.89 8.85733 174.236 8.288C174.581 7.70933 175.052 7.25667 175.65 6.93C176.247 6.60333 176.928 6.44 177.694 6.44C178.468 6.44 179.154 6.60333 179.752 6.93C180.358 7.25667 180.83 7.70467 181.166 8.274C181.511 8.84333 181.684 9.506 181.684 10.262C181.684 10.9993 181.511 11.6573 181.166 12.236C180.83 12.8147 180.358 13.272 179.752 13.608C179.154 13.9347 178.468 14.098 177.694 14.098ZM177.694 12.6C178.123 12.6 178.506 12.5067 178.842 12.32C179.178 12.1333 179.439 11.8627 179.626 11.508C179.822 11.1533 179.92 10.738 179.92 10.262C179.92 9.77667 179.822 9.36133 179.626 9.016C179.439 8.66133 179.178 8.39067 178.842 8.204C178.506 8.01733 178.128 7.924 177.708 7.924C177.278 7.924 176.896 8.01733 176.56 8.204C176.233 8.39067 175.972 8.66133 175.776 9.016C175.58 9.36133 175.482 9.77667 175.482 10.262C175.482 10.738 175.58 11.1533 175.776 11.508C175.972 11.8627 176.233 12.1333 176.56 12.32C176.896 12.5067 177.274 12.6 177.694 12.6Z" fill="black"/>
<path d="M59.2403 15.765C59.5596 16.0783 60.0745 16.0783 60.3938 15.765L65.8094 10.4508C66.0635 10.2014 66.0635 9.79856 65.8094 9.54916L60.3938 4.23501C60.0745 3.92166 59.5596 3.92166 59.2403 4.23501C58.921 4.54836 58.921 5.05356 59.2403 5.36691L63.9586 10.0032L59.2338 14.6395C58.921 14.9464 58.921 15.458 59.2403 15.765Z" fill="black"/>
</svg>
