<svg width="709" height="16" viewBox="0 0 709 16" fill="none" xmlns="http://www.w3.org/2000/svg">
<path d="M6.464 12.048C5.664 12.048 4.92267 11.904 4.24 11.616C3.55733 11.328 2.96 10.928 2.448 10.416C1.936 9.89333 1.536 9.29067 1.248 8.608C0.970667 7.92533 0.832 7.18933 0.832 6.4C0.832 5.61067 0.976 4.87467 1.264 4.192C1.552 3.50933 1.952 2.912 2.464 2.4C2.976 1.87733 3.57333 1.472 4.256 1.184C4.94933 0.896 5.696 0.752 6.496 0.752C7.296 0.752 8.03733 0.896 8.72 1.184C9.41333 1.46133 10.0107 1.856 10.512 2.368C11.024 2.88 11.4187 3.47733 11.696 4.16C11.984 4.832 12.128 5.568 12.128 6.368C12.128 7.168 11.984 7.91467 11.696 8.608C11.408 9.29067 11.0027 9.89333 10.48 10.416C9.968 10.928 9.37067 11.328 8.688 11.616C8.00533 11.904 7.264 12.048 6.464 12.048ZM6.448 11.456C7.17333 11.456 7.84 11.328 8.448 11.072C9.056 10.8053 9.58933 10.4427 10.048 9.984C10.5173 9.52533 10.88 8.98667 11.136 8.368C11.392 7.73867 11.52 7.072 11.52 6.368C11.52 5.65333 11.392 4.992 11.136 4.384C10.8907 3.776 10.5387 3.24267 10.08 2.784C9.632 2.32533 9.09867 1.97333 8.48 1.728C7.872 1.472 7.21067 1.344 6.496 1.344C5.77067 1.344 5.09867 1.472 4.48 1.728C3.86133 1.984 3.32267 2.34667 2.864 2.816C2.416 3.27467 2.064 3.808 1.808 4.416C1.552 5.024 1.424 5.68533 1.424 6.4C1.424 7.104 1.552 7.76533 1.808 8.384C2.064 8.992 2.416 9.53067 2.864 10C3.32267 10.4587 3.856 10.816 4.464 11.072C5.08267 11.328 5.744 11.456 6.448 11.456ZM6.608 9.728C5.968 9.728 5.39733 9.58933 4.896 9.312C4.39467 9.024 4 8.62933 3.712 8.128C3.424 7.62667 3.28 7.05067 3.28 6.4C3.28 5.74933 3.424 5.17333 3.712 4.672C4 4.17067 4.39467 3.78133 4.896 3.504C5.39733 3.216 5.968 3.072 6.608 3.072C7.152 3.072 7.64267 3.184 8.08 3.408C8.528 3.62133 8.88533 3.92 9.152 4.304L8.464 4.816C8.24 4.50667 7.968 4.27733 7.648 4.128C7.328 3.97867 6.976 3.904 6.592 3.904C6.13333 3.904 5.72267 4.01067 5.36 4.224C5.008 4.42667 4.72533 4.71467 4.512 5.088C4.29867 5.46133 4.192 5.89867 4.192 6.4C4.192 6.90133 4.29867 7.33867 4.512 7.712C4.72533 8.08533 5.008 8.37867 5.36 8.592C5.72267 8.79467 6.13333 8.896 6.592 8.896C6.976 8.896 7.328 8.82133 7.648 8.672C7.968 8.52267 8.24 8.29333 8.464 7.984L9.152 8.48C8.88533 8.87467 8.528 9.184 8.08 9.408C7.64267 9.62133 7.152 9.728 6.608 9.728ZM20.005 5.808H25.925V6.816H20.005V5.808ZM20.133 10.976H26.869V12H18.949V0.799999H26.629V1.824H20.133V10.976ZM31.4003 12L27.6723 3.6H28.8563L32.2803 11.392H31.7203L35.1923 3.6H36.3123L32.5683 12H31.4003ZM37.9121 12V3.6H39.0481V12H37.9121ZM38.4881 1.744C38.2535 1.744 38.0561 1.664 37.8961 1.504C37.7361 1.344 37.6561 1.152 37.6561 0.927999C37.6561 0.703999 37.7361 0.517332 37.8961 0.367999C38.0561 0.207999 38.2535 0.127999 38.4881 0.127999C38.7228 0.127999 38.9201 0.202666 39.0801 0.351999C39.2401 0.501333 39.3201 0.687999 39.3201 0.912C39.3201 1.14667 39.2401 1.344 39.0801 1.504C38.9308 1.664 38.7335 1.744 38.4881 1.744ZM45.553 12.08C44.753 12.08 44.033 11.8987 43.393 11.536C42.7637 11.1733 42.2677 10.672 41.905 10.032C41.5423 9.38133 41.361 8.63467 41.361 7.792C41.361 6.93867 41.5423 6.192 41.905 5.552C42.2677 4.912 42.7637 4.416 43.393 4.064C44.033 3.70133 44.753 3.52 45.553 3.52C46.289 3.52 46.945 3.68533 47.521 4.016C48.1077 4.34667 48.5717 4.832 48.913 5.472C49.265 6.10133 49.441 6.87467 49.441 7.792C49.441 8.69867 49.2703 9.472 48.929 10.112C48.5877 10.752 48.1237 11.2427 47.537 11.584C46.961 11.9147 46.2997 12.08 45.553 12.08ZM45.633 11.072C46.2303 11.072 46.7637 10.9387 47.233 10.672C47.713 10.3947 48.0863 10.0107 48.353 9.52C48.6303 9.01867 48.769 8.44267 48.769 7.792C48.769 7.13067 48.6303 6.55467 48.353 6.064C48.0863 5.57333 47.713 5.19467 47.233 4.928C46.7637 4.65067 46.2303 4.512 45.633 4.512C45.0463 4.512 44.5183 4.65067 44.049 4.928C43.5797 5.19467 43.2063 5.57333 42.929 6.064C42.6517 6.55467 42.513 7.13067 42.513 7.792C42.513 8.44267 42.6517 9.01867 42.929 9.52C43.2063 10.0107 43.5797 10.3947 44.049 10.672C44.5183 10.9387 45.0463 11.072 45.633 11.072ZM48.801 12V9.472L48.913 7.776L48.753 6.08V0.127999H49.889V12H48.801ZM53.0528 12V3.6H54.1888V12H53.0528ZM53.6288 1.744C53.3941 1.744 53.1968 1.664 53.0368 1.504C52.8768 1.344 52.7968 1.152 52.7968 0.927999C52.7968 0.703999 52.8768 0.517332 53.0368 0.367999C53.1968 0.207999 53.3941 0.127999 53.6288 0.127999C53.8634 0.127999 54.0608 0.202666 54.2208 0.351999C54.3808 0.501333 54.4608 0.687999 54.4608 0.912C54.4608 1.14667 54.3808 1.344 54.2208 1.504C54.0714 1.664 53.8741 1.744 53.6288 1.744ZM62.6136 12V10.144L62.5656 9.84V6.736C62.5656 6.02133 62.363 5.472 61.9576 5.088C61.563 4.704 60.971 4.512 60.1816 4.512C59.6376 4.512 59.1203 4.60267 58.6296 4.784C58.139 4.96533 57.723 5.20533 57.3816 5.504L56.8696 4.656C57.2963 4.29333 57.8083 4.016 58.4056 3.824C59.003 3.62133 59.6323 3.52 60.2936 3.52C61.3816 3.52 62.219 3.792 62.8056 4.336C63.403 4.86933 63.7016 5.68533 63.7016 6.784V12H62.6136ZM59.7176 12.08C59.0883 12.08 58.539 11.9787 58.0696 11.776C57.611 11.5627 57.259 11.2747 57.0136 10.912C56.7683 10.5387 56.6456 10.112 56.6456 9.632C56.6456 9.19467 56.747 8.8 56.9496 8.448C57.163 8.08533 57.5043 7.79733 57.9736 7.584C58.4536 7.36 59.0936 7.248 59.8936 7.248H62.7896V8.096H59.9256C59.115 8.096 58.5496 8.24 58.2296 8.528C57.9203 8.816 57.7656 9.17333 57.7656 9.6C57.7656 10.08 57.9523 10.464 58.3256 10.752C58.699 11.04 59.2216 11.184 59.8936 11.184C60.5336 11.184 61.083 11.04 61.5416 10.752C62.011 10.4533 62.3523 10.0267 62.5656 9.472L62.8216 10.256C62.6083 10.8107 62.235 11.2533 61.7016 11.584C61.179 11.9147 60.5176 12.08 59.7176 12.08ZM71.0751 3.52C71.7578 3.52 72.3551 3.65333 72.8671 3.92C73.3898 4.176 73.7951 4.57067 74.0831 5.104C74.3818 5.63733 74.5311 6.30933 74.5311 7.12V12H73.3951V7.232C73.3951 6.34667 73.1711 5.68 72.7231 5.232C72.2858 4.77333 71.6671 4.544 70.8671 4.544C70.2698 4.544 69.7471 4.66667 69.2991 4.912C68.8618 5.14667 68.5205 5.49333 68.2751 5.952C68.0405 6.4 67.9231 6.944 67.9231 7.584V12H66.7871V3.6H67.8751V5.904L67.6991 5.472C67.9658 4.864 68.3925 4.38933 68.9791 4.048C69.5658 3.696 70.2645 3.52 71.0751 3.52ZM76.9116 14.336L77.6156 11.376L77.7436 12.064C77.4983 12.064 77.2903 11.984 77.1196 11.824C76.9596 11.664 76.8796 11.456 76.8796 11.2C76.8796 10.944 76.9596 10.736 77.1196 10.576C77.2903 10.416 77.493 10.336 77.7276 10.336C77.973 10.336 78.1703 10.4213 78.3196 10.592C78.4796 10.7627 78.5596 10.9653 78.5596 11.2C78.5596 11.2853 78.5543 11.3707 78.5436 11.456C78.533 11.5413 78.5116 11.6373 78.4796 11.744C78.4476 11.8507 78.405 11.9787 78.3516 12.128L77.6796 14.336H76.9116ZM83.6258 12L88.7458 0.799999H89.9138L95.0338 12H93.7858L89.0818 1.488H89.5618L84.8578 12H83.6258ZM85.6418 9.008L85.9938 8.048H92.5058L92.8578 9.008H85.6418ZM96.6465 12V0.127999H97.7825V12H96.6465ZM100.943 12V0.127999H102.079V12H100.943ZM109.668 12V0.799999H113.86C114.809 0.799999 115.625 0.954666 116.308 1.264C116.99 1.56267 117.513 2 117.876 2.576C118.249 3.14133 118.436 3.82933 118.436 4.64C118.436 5.42933 118.249 6.112 117.876 6.688C117.513 7.25333 116.99 7.69067 116.308 8C115.625 8.29867 114.809 8.448 113.86 8.448H110.324L110.852 7.904V12H109.668ZM117.316 12L114.436 7.936H115.716L118.612 12H117.316ZM110.852 8L110.324 7.44H113.828C114.948 7.44 115.796 7.19467 116.372 6.704C116.958 6.21333 117.252 5.52533 117.252 4.64C117.252 3.744 116.958 3.05067 116.372 2.56C115.796 2.06933 114.948 1.824 113.828 1.824H110.324L110.852 1.264V8ZM120.99 12V3.6H122.126V12H120.99ZM121.566 1.744C121.332 1.744 121.134 1.664 120.974 1.504C120.814 1.344 120.734 1.152 120.734 0.927999C120.734 0.703999 120.814 0.517332 120.974 0.367999C121.134 0.207999 121.332 0.127999 121.566 0.127999C121.801 0.127999 121.998 0.202666 122.158 0.351999C122.318 0.501333 122.398 0.687999 122.398 0.912C122.398 1.14667 122.318 1.344 122.158 1.504C122.009 1.664 121.812 1.744 121.566 1.744ZM128.871 15.184C128.103 15.184 127.367 15.072 126.663 14.848C125.959 14.624 125.388 14.304 124.951 13.888L125.527 13.024C125.922 13.376 126.407 13.6533 126.983 13.856C127.57 14.0693 128.188 14.176 128.839 14.176C129.906 14.176 130.69 13.9253 131.191 13.424C131.692 12.9333 131.943 12.1653 131.943 11.12V9.024L132.103 7.584L131.991 6.144V3.6H133.079V10.976C133.079 12.4267 132.722 13.488 132.007 14.16C131.303 14.8427 130.258 15.184 128.871 15.184ZM128.663 11.68C127.863 11.68 127.143 11.5093 126.503 11.168C125.863 10.816 125.356 10.3307 124.983 9.712C124.62 9.09333 124.439 8.384 124.439 7.584C124.439 6.784 124.62 6.08 124.983 5.472C125.356 4.85333 125.863 4.37333 126.503 4.032C127.143 3.69067 127.863 3.52 128.663 3.52C129.41 3.52 130.082 3.67467 130.679 3.984C131.276 4.29333 131.751 4.752 132.103 5.36C132.455 5.968 132.631 6.70933 132.631 7.584C132.631 8.45867 132.455 9.2 132.103 9.808C131.751 10.416 131.276 10.88 130.679 11.2C130.082 11.52 129.41 11.68 128.663 11.68ZM128.775 10.672C129.394 10.672 129.943 10.544 130.423 10.288C130.903 10.0213 131.282 9.65867 131.559 9.2C131.836 8.73067 131.975 8.192 131.975 7.584C131.975 6.976 131.836 6.44267 131.559 5.984C131.282 5.52533 130.903 5.168 130.423 4.912C129.943 4.64533 129.394 4.512 128.775 4.512C128.167 4.512 127.618 4.64533 127.127 4.912C126.647 5.168 126.268 5.52533 125.991 5.984C125.724 6.44267 125.591 6.976 125.591 7.584C125.591 8.192 125.724 8.73067 125.991 9.2C126.268 9.65867 126.647 10.0213 127.127 10.288C127.618 10.544 128.167 10.672 128.775 10.672ZM140.528 3.52C141.211 3.52 141.808 3.65333 142.32 3.92C142.843 4.176 143.248 4.57067 143.536 5.104C143.835 5.63733 143.984 6.30933 143.984 7.12V12H142.848V7.232C142.848 6.34667 142.624 5.68 142.176 5.232C141.739 4.77333 141.12 4.544 140.32 4.544C139.723 4.544 139.2 4.66667 138.752 4.912C138.315 5.14667 137.974 5.49333 137.728 5.952C137.494 6.4 137.376 6.944 137.376 7.584V12H136.24V0.127999H137.376V5.904L137.152 5.472C137.419 4.864 137.846 4.38933 138.432 4.048C139.019 3.696 139.718 3.52 140.528 3.52ZM149.709 12.08C148.919 12.08 148.311 11.8667 147.885 11.44C147.458 11.0133 147.245 10.4107 147.245 9.632V1.744H148.381V9.568C148.381 10.0587 148.503 10.4373 148.749 10.704C149.005 10.9707 149.367 11.104 149.837 11.104C150.338 11.104 150.754 10.96 151.085 10.672L151.485 11.488C151.261 11.6907 150.989 11.84 150.669 11.936C150.359 12.032 150.039 12.08 149.709 12.08ZM145.741 4.544V3.6H150.941V4.544H145.741ZM155.809 12.08C155.115 12.08 154.459 11.984 153.841 11.792C153.222 11.5893 152.737 11.3387 152.385 11.04L152.897 10.144C153.238 10.4 153.675 10.624 154.209 10.816C154.742 10.9973 155.302 11.088 155.889 11.088C156.689 11.088 157.265 10.9653 157.617 10.72C157.969 10.464 158.145 10.128 158.145 9.712C158.145 9.40267 158.043 9.16267 157.841 8.992C157.649 8.81067 157.393 8.67733 157.073 8.592C156.753 8.496 156.395 8.416 156.001 8.352C155.606 8.288 155.211 8.21333 154.817 8.128C154.433 8.04267 154.081 7.92 153.761 7.76C153.441 7.58933 153.179 7.36 152.977 7.072C152.785 6.784 152.689 6.4 152.689 5.92C152.689 5.46133 152.817 5.05067 153.073 4.688C153.329 4.32533 153.702 4.04267 154.193 3.84C154.694 3.62667 155.302 3.52 156.017 3.52C156.561 3.52 157.105 3.59467 157.649 3.744C158.193 3.88267 158.641 4.06933 158.993 4.304L158.497 5.216C158.123 4.96 157.723 4.77867 157.297 4.672C156.87 4.55467 156.443 4.496 156.017 4.496C155.259 4.496 154.699 4.62933 154.337 4.896C153.985 5.152 153.809 5.48267 153.809 5.888C153.809 6.208 153.905 6.45867 154.097 6.64C154.299 6.82133 154.561 6.96533 154.881 7.072C155.211 7.168 155.569 7.248 155.953 7.312C156.347 7.376 156.737 7.456 157.121 7.552C157.515 7.63733 157.873 7.76 158.193 7.92C158.523 8.06933 158.785 8.288 158.977 8.576C159.179 8.85333 159.281 9.22133 159.281 9.68C159.281 10.1707 159.142 10.5973 158.865 10.96C158.598 11.312 158.203 11.5893 157.681 11.792C157.169 11.984 156.545 12.08 155.809 12.08ZM165.793 12V0.799999H169.985C170.934 0.799999 171.75 0.954666 172.433 1.264C173.115 1.56267 173.638 2 174.001 2.576C174.374 3.14133 174.561 3.82933 174.561 4.64C174.561 5.42933 174.374 6.112 174.001 6.688C173.638 7.25333 173.115 7.69067 172.433 8C171.75 8.29867 170.934 8.448 169.985 8.448H166.449L166.977 7.904V12H165.793ZM173.441 12L170.561 7.936H171.841L174.737 12H173.441ZM166.977 8L166.449 7.44H169.953C171.073 7.44 171.921 7.19467 172.497 6.704C173.083 6.21333 173.377 5.52533 173.377 4.64C173.377 3.744 173.083 3.05067 172.497 2.56C171.921 2.06933 171.073 1.824 169.953 1.824H166.449L166.977 1.264V8ZM180.683 12.08C179.809 12.08 179.041 11.8987 178.379 11.536C177.718 11.1627 177.201 10.656 176.827 10.016C176.454 9.36533 176.267 8.624 176.267 7.792C176.267 6.96 176.443 6.224 176.795 5.584C177.158 4.944 177.649 4.44267 178.267 4.08C178.897 3.70667 179.601 3.52 180.379 3.52C181.169 3.52 181.867 3.70133 182.475 4.064C183.094 4.416 183.579 4.91733 183.931 5.568C184.283 6.208 184.459 6.94933 184.459 7.792C184.459 7.84533 184.454 7.904 184.443 7.968C184.443 8.02133 184.443 8.08 184.443 8.144H177.131V7.296H183.835L183.387 7.632C183.387 7.024 183.254 6.48533 182.987 6.016C182.731 5.536 182.379 5.16267 181.931 4.896C181.483 4.62933 180.966 4.496 180.379 4.496C179.803 4.496 179.286 4.62933 178.827 4.896C178.369 5.16267 178.011 5.536 177.755 6.016C177.499 6.496 177.371 7.04533 177.371 7.664V7.84C177.371 8.48 177.51 9.04533 177.787 9.536C178.075 10.016 178.47 10.3947 178.971 10.672C179.483 10.9387 180.065 11.072 180.715 11.072C181.227 11.072 181.702 10.9813 182.139 10.8C182.587 10.6187 182.971 10.3413 183.291 9.968L183.931 10.704C183.558 11.152 183.089 11.4933 182.523 11.728C181.969 11.9627 181.355 12.08 180.683 12.08ZM189.028 12.08C188.334 12.08 187.678 11.984 187.06 11.792C186.441 11.5893 185.956 11.3387 185.604 11.04L186.116 10.144C186.457 10.4 186.894 10.624 187.428 10.816C187.961 10.9973 188.521 11.088 189.108 11.088C189.908 11.088 190.484 10.9653 190.836 10.72C191.188 10.464 191.364 10.128 191.364 9.712C191.364 9.40267 191.262 9.16267 191.06 8.992C190.868 8.81067 190.612 8.67733 190.292 8.592C189.972 8.496 189.614 8.416 189.22 8.352C188.825 8.288 188.43 8.21333 188.036 8.128C187.652 8.04267 187.3 7.92 186.98 7.76C186.66 7.58933 186.398 7.36 186.196 7.072C186.004 6.784 185.908 6.4 185.908 5.92C185.908 5.46133 186.036 5.05067 186.292 4.688C186.548 4.32533 186.921 4.04267 187.412 3.84C187.913 3.62667 188.521 3.52 189.236 3.52C189.78 3.52 190.324 3.59467 190.868 3.744C191.412 3.88267 191.86 4.06933 192.212 4.304L191.716 5.216C191.342 4.96 190.942 4.77867 190.516 4.672C190.089 4.55467 189.662 4.496 189.236 4.496C188.478 4.496 187.918 4.62933 187.556 4.896C187.204 5.152 187.028 5.48267 187.028 5.888C187.028 6.208 187.124 6.45867 187.316 6.64C187.518 6.82133 187.78 6.96533 188.1 7.072C188.43 7.168 188.788 7.248 189.172 7.312C189.566 7.376 189.956 7.456 190.34 7.552C190.734 7.63733 191.092 7.76 191.412 7.92C191.742 8.06933 192.004 8.288 192.196 8.576C192.398 8.85333 192.5 9.22133 192.5 9.68C192.5 10.1707 192.361 10.5973 192.084 10.96C191.817 11.312 191.422 11.5893 190.9 11.792C190.388 11.984 189.764 12.08 189.028 12.08ZM198.152 12.08C197.277 12.08 196.509 11.8987 195.848 11.536C195.187 11.1627 194.669 10.656 194.296 10.016C193.923 9.36533 193.736 8.624 193.736 7.792C193.736 6.96 193.912 6.224 194.264 5.584C194.627 4.944 195.117 4.44267 195.736 4.08C196.365 3.70667 197.069 3.52 197.848 3.52C198.637 3.52 199.336 3.70133 199.944 4.064C200.563 4.416 201.048 4.91733 201.4 5.568C201.752 6.208 201.928 6.94933 201.928 7.792C201.928 7.84533 201.923 7.904 201.912 7.968C201.912 8.02133 201.912 8.08 201.912 8.144H194.6V7.296H201.304L200.856 7.632C200.856 7.024 200.723 6.48533 200.456 6.016C200.2 5.536 199.848 5.16267 199.4 4.896C198.952 4.62933 198.435 4.496 197.848 4.496C197.272 4.496 196.755 4.62933 196.296 4.896C195.837 5.16267 195.48 5.536 195.224 6.016C194.968 6.496 194.84 7.04533 194.84 7.664V7.84C194.84 8.48 194.979 9.04533 195.256 9.536C195.544 10.016 195.939 10.3947 196.44 10.672C196.952 10.9387 197.533 11.072 198.184 11.072C198.696 11.072 199.171 10.9813 199.608 10.8C200.056 10.6187 200.44 10.3413 200.76 9.968L201.4 10.704C201.027 11.152 200.557 11.4933 199.992 11.728C199.437 11.9627 198.824 12.08 198.152 12.08ZM204.24 12V3.6H205.328V5.888L205.216 5.488C205.451 4.848 205.846 4.36267 206.4 4.032C206.955 3.69067 207.643 3.52 208.464 3.52V4.624C208.422 4.624 208.379 4.624 208.336 4.624C208.294 4.61333 208.251 4.608 208.208 4.608C207.323 4.608 206.63 4.88 206.128 5.424C205.627 5.95733 205.376 6.72 205.376 7.712V12H204.24ZM213.057 12L209.329 3.6H210.513L213.937 11.392H213.377L216.849 3.6H217.969L214.225 12H213.057ZM222.902 12.08C222.027 12.08 221.259 11.8987 220.598 11.536C219.937 11.1627 219.419 10.656 219.046 10.016C218.673 9.36533 218.486 8.624 218.486 7.792C218.486 6.96 218.662 6.224 219.014 5.584C219.377 4.944 219.867 4.44267 220.486 4.08C221.115 3.70667 221.819 3.52 222.598 3.52C223.387 3.52 224.086 3.70133 224.694 4.064C225.313 4.416 225.798 4.91733 226.15 5.568C226.502 6.208 226.678 6.94933 226.678 7.792C226.678 7.84533 226.673 7.904 226.662 7.968C226.662 8.02133 226.662 8.08 226.662 8.144H219.35V7.296H226.054L225.606 7.632C225.606 7.024 225.473 6.48533 225.206 6.016C224.95 5.536 224.598 5.16267 224.15 4.896C223.702 4.62933 223.185 4.496 222.598 4.496C222.022 4.496 221.505 4.62933 221.046 4.896C220.587 5.16267 220.23 5.536 219.974 6.016C219.718 6.496 219.59 7.04533 219.59 7.664V7.84C219.59 8.48 219.729 9.04533 220.006 9.536C220.294 10.016 220.689 10.3947 221.19 10.672C221.702 10.9387 222.283 11.072 222.934 11.072C223.446 11.072 223.921 10.9813 224.358 10.8C224.806 10.6187 225.19 10.3413 225.51 9.968L226.15 10.704C225.777 11.152 225.307 11.4933 224.742 11.728C224.187 11.9627 223.574 12.08 222.902 12.08ZM232.334 12.08C231.534 12.08 230.814 11.8987 230.174 11.536C229.545 11.1733 229.049 10.672 228.686 10.032C228.324 9.38133 228.142 8.63467 228.142 7.792C228.142 6.93867 228.324 6.192 228.686 5.552C229.049 4.912 229.545 4.416 230.174 4.064C230.814 3.70133 231.534 3.52 232.334 3.52C233.07 3.52 233.726 3.68533 234.302 4.016C234.889 4.34667 235.353 4.832 235.694 5.472C236.046 6.10133 236.222 6.87467 236.222 7.792C236.222 8.69867 236.052 9.472 235.71 10.112C235.369 10.752 234.905 11.2427 234.318 11.584C233.742 11.9147 233.081 12.08 232.334 12.08ZM232.414 11.072C233.012 11.072 233.545 10.9387 234.014 10.672C234.494 10.3947 234.868 10.0107 235.134 9.52C235.412 9.01867 235.55 8.44267 235.55 7.792C235.55 7.13067 235.412 6.55467 235.134 6.064C234.868 5.57333 234.494 5.19467 234.014 4.928C233.545 4.65067 233.012 4.512 232.414 4.512C231.828 4.512 231.3 4.65067 230.83 4.928C230.361 5.19467 229.988 5.57333 229.71 6.064C229.433 6.55467 229.294 7.13067 229.294 7.792C229.294 8.44267 229.433 9.01867 229.71 9.52C229.988 10.0107 230.361 10.3947 230.83 10.672C231.3 10.9387 231.828 11.072 232.414 11.072ZM235.582 12V9.472L235.694 7.776L235.534 6.08V0.127999H236.67V12H235.582ZM248.449 15.104V0.127999H249.505V15.104H248.449ZM262.583 5.808H268.503V6.816H262.583V5.808ZM262.711 10.976H269.447V12H261.527V0.799999H269.207V1.824H262.711V10.976ZM273.978 12L270.25 3.6H271.434L274.858 11.392H274.298L277.77 3.6H278.89L275.146 12H273.978ZM280.49 12V3.6H281.626V12H280.49ZM281.066 1.744C280.832 1.744 280.634 1.664 280.474 1.504C280.314 1.344 280.234 1.152 280.234 0.927999C280.234 0.703999 280.314 0.517332 280.474 0.367999C280.634 0.207999 280.832 0.127999 281.066 0.127999C281.301 0.127999 281.498 0.202666 281.658 0.351999C281.818 0.501333 281.898 0.687999 281.898 0.912C281.898 1.14667 281.818 1.344 281.658 1.504C281.509 1.664 281.312 1.744 281.066 1.744ZM288.131 12.08C287.331 12.08 286.611 11.8987 285.971 11.536C285.342 11.1733 284.846 10.672 284.483 10.032C284.12 9.38133 283.939 8.63467 283.939 7.792C283.939 6.93867 284.12 6.192 284.483 5.552C284.846 4.912 285.342 4.416 285.971 4.064C286.611 3.70133 287.331 3.52 288.131 3.52C288.867 3.52 289.523 3.68533 290.099 4.016C290.686 4.34667 291.15 4.832 291.491 5.472C291.843 6.10133 292.019 6.87467 292.019 7.792C292.019 8.69867 291.848 9.472 291.507 10.112C291.166 10.752 290.702 11.2427 290.115 11.584C289.539 11.9147 288.878 12.08 288.131 12.08ZM288.211 11.072C288.808 11.072 289.342 10.9387 289.811 10.672C290.291 10.3947 290.664 10.0107 290.931 9.52C291.208 9.01867 291.347 8.44267 291.347 7.792C291.347 7.13067 291.208 6.55467 290.931 6.064C290.664 5.57333 290.291 5.19467 289.811 4.928C289.342 4.65067 288.808 4.512 288.211 4.512C287.624 4.512 287.096 4.65067 286.627 4.928C286.158 5.19467 285.784 5.57333 285.507 6.064C285.23 6.55467 285.091 7.13067 285.091 7.792C285.091 8.44267 285.23 9.01867 285.507 9.52C285.784 10.0107 286.158 10.3947 286.627 10.672C287.096 10.9387 287.624 11.072 288.211 11.072ZM291.379 12V9.472L291.491 7.776L291.331 6.08V0.127999H292.467V12H291.379ZM299.199 12.08C298.324 12.08 297.556 11.8987 296.895 11.536C296.234 11.1627 295.716 10.656 295.343 10.016C294.97 9.36533 294.783 8.624 294.783 7.792C294.783 6.96 294.959 6.224 295.311 5.584C295.674 4.944 296.164 4.44267 296.783 4.08C297.412 3.70667 298.116 3.52 298.895 3.52C299.684 3.52 300.383 3.70133 300.991 4.064C301.61 4.416 302.095 4.91733 302.447 5.568C302.799 6.208 302.975 6.94933 302.975 7.792C302.975 7.84533 302.97 7.904 302.959 7.968C302.959 8.02133 302.959 8.08 302.959 8.144H295.647V7.296H302.351L301.903 7.632C301.903 7.024 301.77 6.48533 301.503 6.016C301.247 5.536 300.895 5.16267 300.447 4.896C299.999 4.62933 299.482 4.496 298.895 4.496C298.319 4.496 297.802 4.62933 297.343 4.896C296.884 5.16267 296.527 5.536 296.271 6.016C296.015 6.496 295.887 7.04533 295.887 7.664V7.84C295.887 8.48 296.026 9.04533 296.303 9.536C296.591 10.016 296.986 10.3947 297.487 10.672C297.999 10.9387 298.58 11.072 299.231 11.072C299.743 11.072 300.218 10.9813 300.655 10.8C301.103 10.6187 301.487 10.3413 301.807 9.968L302.447 10.704C302.074 11.152 301.604 11.4933 301.039 11.728C300.484 11.9627 299.871 12.08 299.199 12.08ZM309.575 3.52C310.258 3.52 310.855 3.65333 311.367 3.92C311.89 4.176 312.295 4.57067 312.583 5.104C312.882 5.63733 313.031 6.30933 313.031 7.12V12H311.895V7.232C311.895 6.34667 311.671 5.68 311.223 5.232C310.786 4.77333 310.167 4.544 309.367 4.544C308.77 4.544 308.247 4.66667 307.799 4.912C307.362 5.14667 307.02 5.49333 306.775 5.952C306.54 6.4 306.423 6.944 306.423 7.584V12H305.287V3.6H306.375V5.904L306.199 5.472C306.466 4.864 306.892 4.38933 307.479 4.048C308.066 3.696 308.764 3.52 309.575 3.52ZM320.527 12V0.799999H324.719C325.668 0.799999 326.484 0.954666 327.167 1.264C327.85 1.56267 328.372 2 328.735 2.576C329.108 3.14133 329.295 3.82933 329.295 4.64C329.295 5.42933 329.108 6.112 328.735 6.688C328.372 7.25333 327.85 7.69067 327.167 8C326.484 8.30933 325.668 8.464 324.719 8.464H321.183L321.711 7.904V12H320.527ZM321.711 8L321.183 7.424H324.687C325.807 7.424 326.655 7.184 327.231 6.704C327.818 6.21333 328.111 5.52533 328.111 4.64C328.111 3.744 327.818 3.05067 327.231 2.56C326.655 2.06933 325.807 1.824 324.687 1.824H321.183L321.711 1.264V8ZM331.412 12V3.6H332.5V5.888L332.388 5.488C332.623 4.848 333.017 4.36267 333.572 4.032C334.127 3.69067 334.815 3.52 335.636 3.52V4.624C335.593 4.624 335.551 4.624 335.508 4.624C335.465 4.61333 335.423 4.608 335.38 4.608C334.495 4.608 333.801 4.88 333.3 5.424C332.799 5.95733 332.548 6.72 332.548 7.712V12H331.412ZM337.709 12V3.6H338.845V12H337.709ZM338.285 1.744C338.05 1.744 337.853 1.664 337.693 1.504C337.533 1.344 337.453 1.152 337.453 0.927999C337.453 0.703999 337.533 0.517332 337.693 0.367999C337.853 0.207999 338.05 0.127999 338.285 0.127999C338.52 0.127999 338.717 0.202666 338.877 0.351999C339.037 0.501333 339.117 0.687999 339.117 0.912C339.117 1.14667 339.037 1.344 338.877 1.504C338.728 1.664 338.53 1.744 338.285 1.744ZM344.166 12L340.438 3.6H341.622L345.046 11.392H344.486L347.958 3.6H349.078L345.334 12H344.166ZM355.692 12V10.144L355.644 9.84V6.736C355.644 6.02133 355.441 5.472 355.036 5.088C354.641 4.704 354.049 4.512 353.26 4.512C352.716 4.512 352.198 4.60267 351.708 4.784C351.217 4.96533 350.801 5.20533 350.46 5.504L349.948 4.656C350.374 4.29333 350.886 4.016 351.484 3.824C352.081 3.62133 352.71 3.52 353.372 3.52C354.46 3.52 355.297 3.792 355.884 4.336C356.481 4.86933 356.78 5.68533 356.78 6.784V12H355.692ZM352.796 12.08C352.166 12.08 351.617 11.9787 351.148 11.776C350.689 11.5627 350.337 11.2747 350.092 10.912C349.846 10.5387 349.724 10.112 349.724 9.632C349.724 9.19467 349.825 8.8 350.028 8.448C350.241 8.08533 350.582 7.79733 351.052 7.584C351.532 7.36 352.172 7.248 352.972 7.248H355.868V8.096H353.004C352.193 8.096 351.628 8.24 351.308 8.528C350.998 8.816 350.844 9.17333 350.844 9.6C350.844 10.08 351.03 10.464 351.404 10.752C351.777 11.04 352.3 11.184 352.972 11.184C353.612 11.184 354.161 11.04 354.62 10.752C355.089 10.4533 355.43 10.0267 355.644 9.472L355.9 10.256C355.686 10.8107 355.313 11.2533 354.78 11.584C354.257 11.9147 353.596 12.08 352.796 12.08ZM363.353 12.08C362.521 12.08 361.775 11.8987 361.113 11.536C360.463 11.1627 359.951 10.656 359.577 10.016C359.204 9.36533 359.017 8.624 359.017 7.792C359.017 6.94933 359.204 6.208 359.577 5.568C359.951 4.928 360.463 4.42667 361.113 4.064C361.775 3.70133 362.521 3.52 363.353 3.52C364.068 3.52 364.713 3.65867 365.289 3.936C365.865 4.21333 366.319 4.62933 366.649 5.184L365.801 5.76C365.513 5.33333 365.156 5.01867 364.729 4.816C364.303 4.61333 363.839 4.512 363.337 4.512C362.74 4.512 362.201 4.65067 361.721 4.928C361.241 5.19467 360.863 5.57333 360.585 6.064C360.308 6.55467 360.169 7.13067 360.169 7.792C360.169 8.45333 360.308 9.02933 360.585 9.52C360.863 10.0107 361.241 10.3947 361.721 10.672C362.201 10.9387 362.74 11.072 363.337 11.072C363.839 11.072 364.303 10.9707 364.729 10.768C365.156 10.5653 365.513 10.256 365.801 9.84L366.649 10.416C366.319 10.96 365.865 11.376 365.289 11.664C364.713 11.9413 364.068 12.08 363.353 12.08ZM368.82 15.184C368.425 15.184 368.047 15.12 367.684 14.992C367.332 14.864 367.028 14.672 366.772 14.416L367.3 13.568C367.513 13.7707 367.743 13.9253 367.988 14.032C368.244 14.1493 368.527 14.208 368.836 14.208C369.209 14.208 369.529 14.1013 369.796 13.888C370.073 13.6853 370.335 13.3227 370.58 12.8L371.124 11.568L371.252 11.392L374.708 3.6H375.828L371.62 13.008C371.385 13.552 371.124 13.984 370.836 14.304C370.559 14.624 370.255 14.848 369.924 14.976C369.593 15.1147 369.225 15.184 368.82 15.184ZM371.06 12.24L367.188 3.6H368.372L371.796 11.312L371.06 12.24ZM386.043 15.104V0.127999H387.099V15.104H386.043ZM400.177 5.808H406.097V6.816H400.177V5.808ZM400.305 10.976H407.041V12H399.121V0.799999H406.801V1.824H400.305V10.976ZM411.572 12L407.844 3.6H409.028L412.452 11.392H411.892L415.364 3.6H416.484L412.74 12H411.572ZM418.084 12V3.6H419.22V12H418.084ZM418.66 1.744C418.425 1.744 418.228 1.664 418.068 1.504C417.908 1.344 417.828 1.152 417.828 0.927999C417.828 0.703999 417.908 0.517332 418.068 0.367999C418.228 0.207999 418.425 0.127999 418.66 0.127999C418.895 0.127999 419.092 0.202666 419.252 0.351999C419.412 0.501333 419.492 0.687999 419.492 0.912C419.492 1.14667 419.412 1.344 419.252 1.504C419.103 1.664 418.905 1.744 418.66 1.744ZM425.725 12.08C424.925 12.08 424.205 11.8987 423.565 11.536C422.936 11.1733 422.44 10.672 422.077 10.032C421.714 9.38133 421.533 8.63467 421.533 7.792C421.533 6.93867 421.714 6.192 422.077 5.552C422.44 4.912 422.936 4.416 423.565 4.064C424.205 3.70133 424.925 3.52 425.725 3.52C426.461 3.52 427.117 3.68533 427.693 4.016C428.28 4.34667 428.744 4.832 429.085 5.472C429.437 6.10133 429.613 6.87467 429.613 7.792C429.613 8.69867 429.442 9.472 429.101 10.112C428.76 10.752 428.296 11.2427 427.709 11.584C427.133 11.9147 426.472 12.08 425.725 12.08ZM425.805 11.072C426.402 11.072 426.936 10.9387 427.405 10.672C427.885 10.3947 428.258 10.0107 428.525 9.52C428.802 9.01867 428.941 8.44267 428.941 7.792C428.941 7.13067 428.802 6.55467 428.525 6.064C428.258 5.57333 427.885 5.19467 427.405 4.928C426.936 4.65067 426.402 4.512 425.805 4.512C425.218 4.512 424.69 4.65067 424.221 4.928C423.752 5.19467 423.378 5.57333 423.101 6.064C422.824 6.55467 422.685 7.13067 422.685 7.792C422.685 8.44267 422.824 9.01867 423.101 9.52C423.378 10.0107 423.752 10.3947 424.221 10.672C424.69 10.9387 425.218 11.072 425.805 11.072ZM428.973 12V9.472L429.085 7.776L428.925 6.08V0.127999H430.061V12H428.973ZM436.793 12.08C435.918 12.08 435.15 11.8987 434.489 11.536C433.827 11.1627 433.31 10.656 432.937 10.016C432.563 9.36533 432.377 8.624 432.377 7.792C432.377 6.96 432.553 6.224 432.905 5.584C433.267 4.944 433.758 4.44267 434.377 4.08C435.006 3.70667 435.71 3.52 436.489 3.52C437.278 3.52 437.977 3.70133 438.585 4.064C439.203 4.416 439.689 4.91733 440.041 5.568C440.393 6.208 440.569 6.94933 440.569 7.792C440.569 7.84533 440.563 7.904 440.553 7.968C440.553 8.02133 440.553 8.08 440.553 8.144H433.241V7.296H439.945L439.497 7.632C439.497 7.024 439.363 6.48533 439.097 6.016C438.841 5.536 438.489 5.16267 438.041 4.896C437.593 4.62933 437.075 4.496 436.489 4.496C435.913 4.496 435.395 4.62933 434.937 4.896C434.478 5.16267 434.121 5.536 433.865 6.016C433.609 6.496 433.481 7.04533 433.481 7.664V7.84C433.481 8.48 433.619 9.04533 433.897 9.536C434.185 10.016 434.579 10.3947 435.081 10.672C435.593 10.9387 436.174 11.072 436.825 11.072C437.337 11.072 437.811 10.9813 438.249 10.8C438.697 10.6187 439.081 10.3413 439.401 9.968L440.041 10.704C439.667 11.152 439.198 11.4933 438.633 11.728C438.078 11.9627 437.465 12.08 436.793 12.08ZM447.169 3.52C447.852 3.52 448.449 3.65333 448.961 3.92C449.484 4.176 449.889 4.57067 450.177 5.104C450.476 5.63733 450.625 6.30933 450.625 7.12V12H449.489V7.232C449.489 6.34667 449.265 5.68 448.817 5.232C448.38 4.77333 447.761 4.544 446.961 4.544C446.364 4.544 445.841 4.66667 445.393 4.912C444.956 5.14667 444.614 5.49333 444.369 5.952C444.134 6.4 444.017 6.944 444.017 7.584V12H442.881V3.6H443.969V5.904L443.793 5.472C444.06 4.864 444.486 4.38933 445.073 4.048C445.66 3.696 446.358 3.52 447.169 3.52ZM460.297 12V1.824H456.361V0.799999H465.417V1.824H461.481V12H460.297ZM469.761 12.08C468.887 12.08 468.119 11.8987 467.457 11.536C466.796 11.1627 466.279 10.656 465.905 10.016C465.532 9.36533 465.345 8.624 465.345 7.792C465.345 6.96 465.521 6.224 465.873 5.584C466.236 4.944 466.727 4.44267 467.345 4.08C467.975 3.70667 468.679 3.52 469.457 3.52C470.247 3.52 470.945 3.70133 471.553 4.064C472.172 4.416 472.657 4.91733 473.009 5.568C473.361 6.208 473.537 6.94933 473.537 7.792C473.537 7.84533 473.532 7.904 473.521 7.968C473.521 8.02133 473.521 8.08 473.521 8.144H466.209V7.296H472.913L472.465 7.632C472.465 7.024 472.332 6.48533 472.065 6.016C471.809 5.536 471.457 5.16267 471.009 4.896C470.561 4.62933 470.044 4.496 469.457 4.496C468.881 4.496 468.364 4.62933 467.905 4.896C467.447 5.16267 467.089 5.536 466.833 6.016C466.577 6.496 466.449 7.04533 466.449 7.664V7.84C466.449 8.48 466.588 9.04533 466.865 9.536C467.153 10.016 467.548 10.3947 468.049 10.672C468.561 10.9387 469.143 11.072 469.793 11.072C470.305 11.072 470.78 10.9813 471.217 10.8C471.665 10.6187 472.049 10.3413 472.369 9.968L473.009 10.704C472.636 11.152 472.167 11.4933 471.601 11.728C471.047 11.9627 470.433 12.08 469.761 12.08ZM475.85 12V3.6H476.938V5.888L476.826 5.488C477.06 4.848 477.455 4.36267 478.01 4.032C478.564 3.69067 479.252 3.52 480.074 3.52V4.624C480.031 4.624 479.988 4.624 479.946 4.624C479.903 4.61333 479.86 4.608 479.818 4.608C478.932 4.608 478.239 4.88 477.738 5.424C477.236 5.95733 476.986 6.72 476.986 7.712V12H475.85ZM492.643 3.52C493.325 3.52 493.917 3.65333 494.419 3.92C494.931 4.176 495.325 4.57067 495.603 5.104C495.891 5.63733 496.035 6.30933 496.035 7.12V12H494.899V7.232C494.899 6.34667 494.685 5.68 494.259 5.232C493.843 4.77333 493.251 4.544 492.483 4.544C491.907 4.544 491.405 4.66667 490.979 4.912C490.563 5.14667 490.237 5.49333 490.003 5.952C489.779 6.4 489.667 6.944 489.667 7.584V12H488.531V7.232C488.531 6.34667 488.317 5.68 487.891 5.232C487.464 4.77333 486.867 4.544 486.099 4.544C485.533 4.544 485.037 4.66667 484.611 4.912C484.184 5.14667 483.853 5.49333 483.619 5.952C483.395 6.4 483.283 6.944 483.283 7.584V12H482.147V3.6H483.235V5.872L483.059 5.472C483.315 4.864 483.725 4.38933 484.291 4.048C484.867 3.696 485.544 3.52 486.323 3.52C487.144 3.52 487.843 3.728 488.419 4.144C488.995 4.54933 489.368 5.16267 489.539 5.984L489.091 5.808C489.336 5.12533 489.768 4.576 490.387 4.16C491.016 3.73333 491.768 3.52 492.643 3.52ZM501.371 12.08C500.678 12.08 500.022 11.984 499.403 11.792C498.785 11.5893 498.299 11.3387 497.947 11.04L498.459 10.144C498.801 10.4 499.238 10.624 499.771 10.816C500.305 10.9973 500.865 11.088 501.451 11.088C502.251 11.088 502.827 10.9653 503.179 10.72C503.531 10.464 503.707 10.128 503.707 9.712C503.707 9.40267 503.606 9.16267 503.403 8.992C503.211 8.81067 502.955 8.67733 502.635 8.592C502.315 8.496 501.958 8.416 501.563 8.352C501.169 8.288 500.774 8.21333 500.379 8.128C499.995 8.04267 499.643 7.92 499.323 7.76C499.003 7.58933 498.742 7.36 498.539 7.072C498.347 6.784 498.251 6.4 498.251 5.92C498.251 5.46133 498.379 5.05067 498.635 4.688C498.891 4.32533 499.265 4.04267 499.755 3.84C500.257 3.62667 500.865 3.52 501.579 3.52C502.123 3.52 502.667 3.59467 503.211 3.744C503.755 3.88267 504.203 4.06933 504.555 4.304L504.059 5.216C503.686 4.96 503.286 4.77867 502.859 4.672C502.433 4.55467 502.006 4.496 501.579 4.496C500.822 4.496 500.262 4.62933 499.899 4.896C499.547 5.152 499.371 5.48267 499.371 5.888C499.371 6.208 499.467 6.45867 499.659 6.64C499.862 6.82133 500.123 6.96533 500.443 7.072C500.774 7.168 501.131 7.248 501.515 7.312C501.91 7.376 502.299 7.456 502.683 7.552C503.078 7.63733 503.435 7.76 503.755 7.92C504.086 8.06933 504.347 8.288 504.539 8.576C504.742 8.85333 504.843 9.22133 504.843 9.68C504.843 10.1707 504.705 10.5973 504.427 10.96C504.161 11.312 503.766 11.5893 503.243 11.792C502.731 11.984 502.107 12.08 501.371 12.08ZM509.563 12L514.683 0.799999H515.851L520.971 12H519.723L515.019 1.488H515.499L510.795 12H509.563ZM511.579 9.008L511.931 8.048H518.443L518.795 9.008H511.579ZM526.872 3.52C527.555 3.52 528.152 3.65333 528.664 3.92C529.187 4.176 529.592 4.57067 529.88 5.104C530.179 5.63733 530.328 6.30933 530.328 7.12V12H529.192V7.232C529.192 6.34667 528.968 5.68 528.52 5.232C528.083 4.77333 527.464 4.544 526.664 4.544C526.067 4.544 525.544 4.66667 525.096 4.912C524.659 5.14667 524.317 5.49333 524.072 5.952C523.837 6.4 523.72 6.944 523.72 7.584V12H522.584V3.6H523.672V5.904L523.496 5.472C523.763 4.864 524.189 4.38933 524.776 4.048C525.363 3.696 526.061 3.52 526.872 3.52ZM536.741 12.08C535.941 12.08 535.221 11.8987 534.581 11.536C533.951 11.1733 533.455 10.672 533.093 10.032C532.73 9.38133 532.549 8.63467 532.549 7.792C532.549 6.93867 532.73 6.192 533.093 5.552C533.455 4.912 533.951 4.416 534.581 4.064C535.221 3.70133 535.941 3.52 536.741 3.52C537.477 3.52 538.133 3.68533 538.709 4.016C539.295 4.34667 539.759 4.832 540.101 5.472C540.453 6.10133 540.628 6.87467 540.628 7.792C540.628 8.69867 540.458 9.472 540.117 10.112C539.775 10.752 539.311 11.2427 538.725 11.584C538.149 11.9147 537.487 12.08 536.741 12.08ZM536.821 11.072C537.418 11.072 537.951 10.9387 538.421 10.672C538.901 10.3947 539.274 10.0107 539.541 9.52C539.818 9.01867 539.957 8.44267 539.957 7.792C539.957 7.13067 539.818 6.55467 539.541 6.064C539.274 5.57333 538.901 5.19467 538.421 4.928C537.951 4.65067 537.418 4.512 536.821 4.512C536.234 4.512 535.706 4.65067 535.237 4.928C534.767 5.19467 534.394 5.57333 534.117 6.064C533.839 6.55467 533.701 7.13067 533.701 7.792C533.701 8.44267 533.839 9.01867 534.117 9.52C534.394 10.0107 534.767 10.3947 535.237 10.672C535.706 10.9387 536.234 11.072 536.821 11.072ZM539.989 12V9.472L540.101 7.776L539.941 6.08V0.127999H541.077V12H539.989ZM553.532 12.096C552.689 12.096 551.91 11.9573 551.196 11.68C550.481 11.392 549.862 10.992 549.34 10.48C548.817 9.968 548.406 9.36533 548.108 8.672C547.82 7.97867 547.676 7.22133 547.676 6.4C547.676 5.57867 547.82 4.82133 548.108 4.128C548.406 3.43467 548.817 2.832 549.34 2.32C549.873 1.808 550.497 1.41333 551.212 1.136C551.926 0.848 552.705 0.704 553.548 0.704C554.358 0.704 555.121 0.842666 555.836 1.12C556.55 1.38667 557.153 1.792 557.644 2.336L556.892 3.088C556.433 2.61867 555.926 2.28267 555.372 2.08C554.817 1.86667 554.22 1.76 553.58 1.76C552.908 1.76 552.284 1.87733 551.708 2.112C551.132 2.336 550.63 2.66133 550.204 3.088C549.777 3.504 549.441 3.99467 549.196 4.56C548.961 5.11467 548.844 5.728 548.844 6.4C548.844 7.072 548.961 7.69067 549.196 8.256C549.441 8.81067 549.777 9.30133 550.204 9.728C550.63 10.144 551.132 10.4693 551.708 10.704C552.284 10.928 552.908 11.04 553.58 11.04C554.22 11.04 554.817 10.9333 555.372 10.72C555.926 10.5067 556.433 10.1653 556.892 9.696L557.644 10.448C557.153 10.992 556.55 11.4027 555.836 11.68C555.121 11.9573 554.353 12.096 553.532 12.096ZM562.977 12.08C562.166 12.08 561.435 11.8987 560.785 11.536C560.145 11.1627 559.638 10.656 559.265 10.016C558.891 9.36533 558.705 8.624 558.705 7.792C558.705 6.94933 558.891 6.208 559.265 5.568C559.638 4.928 560.145 4.42667 560.785 4.064C561.425 3.70133 562.155 3.52 562.977 3.52C563.809 3.52 564.545 3.70133 565.185 4.064C565.835 4.42667 566.342 4.928 566.705 5.568C567.078 6.208 567.265 6.94933 567.265 7.792C567.265 8.624 567.078 9.36533 566.705 10.016C566.342 10.656 565.835 11.1627 565.185 11.536C564.534 11.8987 563.798 12.08 562.977 12.08ZM562.977 11.072C563.585 11.072 564.123 10.9387 564.593 10.672C565.062 10.3947 565.43 10.0107 565.697 9.52C565.974 9.01867 566.113 8.44267 566.113 7.792C566.113 7.13067 565.974 6.55467 565.697 6.064C565.43 5.57333 565.062 5.19467 564.593 4.928C564.123 4.65067 563.59 4.512 562.993 4.512C562.395 4.512 561.862 4.65067 561.393 4.928C560.923 5.19467 560.55 5.57333 560.273 6.064C559.995 6.55467 559.857 7.13067 559.857 7.792C559.857 8.44267 559.995 9.01867 560.273 9.52C560.55 10.0107 560.923 10.3947 561.393 10.672C561.862 10.9387 562.39 11.072 562.977 11.072ZM573.872 3.52C574.555 3.52 575.152 3.65333 575.664 3.92C576.187 4.176 576.592 4.57067 576.88 5.104C577.179 5.63733 577.328 6.30933 577.328 7.12V12H576.192V7.232C576.192 6.34667 575.968 5.68 575.52 5.232C575.083 4.77333 574.464 4.544 573.664 4.544C573.067 4.544 572.544 4.66667 572.096 4.912C571.659 5.14667 571.317 5.49333 571.072 5.952C570.837 6.4 570.72 6.944 570.72 7.584V12H569.584V3.6H570.672V5.904L570.496 5.472C570.763 4.864 571.189 4.38933 571.776 4.048C572.363 3.696 573.061 3.52 573.872 3.52ZM583.741 12.08C582.941 12.08 582.221 11.8987 581.581 11.536C580.951 11.1733 580.455 10.672 580.093 10.032C579.73 9.38133 579.549 8.63467 579.549 7.792C579.549 6.93867 579.73 6.192 580.093 5.552C580.455 4.912 580.951 4.416 581.581 4.064C582.221 3.70133 582.941 3.52 583.741 3.52C584.477 3.52 585.133 3.68533 585.709 4.016C586.295 4.34667 586.759 4.832 587.101 5.472C587.453 6.10133 587.628 6.87467 587.628 7.792C587.628 8.69867 587.458 9.472 587.117 10.112C586.775 10.752 586.311 11.2427 585.725 11.584C585.149 11.9147 584.487 12.08 583.741 12.08ZM583.821 11.072C584.418 11.072 584.951 10.9387 585.421 10.672C585.901 10.3947 586.274 10.0107 586.541 9.52C586.818 9.01867 586.957 8.44267 586.957 7.792C586.957 7.13067 586.818 6.55467 586.541 6.064C586.274 5.57333 585.901 5.19467 585.421 4.928C584.951 4.65067 584.418 4.512 583.821 4.512C583.234 4.512 582.706 4.65067 582.237 4.928C581.767 5.19467 581.394 5.57333 581.117 6.064C580.839 6.55467 580.701 7.13067 580.701 7.792C580.701 8.44267 580.839 9.01867 581.117 9.52C581.394 10.0107 581.767 10.3947 582.237 10.672C582.706 10.9387 583.234 11.072 583.821 11.072ZM586.989 12V9.472L587.101 7.776L586.941 6.08V0.127999H588.077V12H586.989ZM591.24 12V3.6H592.376V12H591.24ZM591.816 1.744C591.582 1.744 591.384 1.664 591.224 1.504C591.064 1.344 590.984 1.152 590.984 0.927999C590.984 0.703999 591.064 0.517332 591.224 0.367999C591.384 0.207999 591.582 0.127999 591.816 0.127999C592.051 0.127999 592.248 0.202666 592.408 0.351999C592.568 0.501333 592.648 0.687999 592.648 0.912C592.648 1.14667 592.568 1.344 592.408 1.504C592.259 1.664 592.062 1.744 591.816 1.744ZM598.193 12.08C597.404 12.08 596.796 11.8667 596.369 11.44C595.942 11.0133 595.729 10.4107 595.729 9.632V1.744H596.865V9.568C596.865 10.0587 596.988 10.4373 597.233 10.704C597.489 10.9707 597.852 11.104 598.321 11.104C598.822 11.104 599.238 10.96 599.569 10.672L599.969 11.488C599.745 11.6907 599.473 11.84 599.153 11.936C598.844 12.032 598.524 12.08 598.193 12.08ZM594.225 4.544V3.6H599.425V4.544H594.225ZM602.037 12V3.6H603.173V12H602.037ZM602.613 1.744C602.378 1.744 602.181 1.664 602.021 1.504C601.861 1.344 601.781 1.152 601.781 0.927999C601.781 0.703999 601.861 0.517332 602.021 0.367999C602.181 0.207999 602.378 0.127999 602.613 0.127999C602.848 0.127999 603.045 0.202666 603.205 0.351999C603.365 0.501333 603.445 0.687999 603.445 0.912C603.445 1.14667 603.365 1.344 603.205 1.504C603.056 1.664 602.858 1.744 602.613 1.744ZM609.758 12.08C608.947 12.08 608.217 11.8987 607.566 11.536C606.926 11.1627 606.419 10.656 606.046 10.016C605.673 9.36533 605.486 8.624 605.486 7.792C605.486 6.94933 605.673 6.208 606.046 5.568C606.419 4.928 606.926 4.42667 607.566 4.064C608.206 3.70133 608.937 3.52 609.758 3.52C610.59 3.52 611.326 3.70133 611.966 4.064C612.617 4.42667 613.123 4.928 613.486 5.568C613.859 6.208 614.046 6.94933 614.046 7.792C614.046 8.624 613.859 9.36533 613.486 10.016C613.123 10.656 612.617 11.1627 611.966 11.536C611.315 11.8987 610.579 12.08 609.758 12.08ZM609.758 11.072C610.366 11.072 610.905 10.9387 611.374 10.672C611.843 10.3947 612.211 10.0107 612.478 9.52C612.755 9.01867 612.894 8.44267 612.894 7.792C612.894 7.13067 612.755 6.55467 612.478 6.064C612.211 5.57333 611.843 5.19467 611.374 4.928C610.905 4.65067 610.371 4.512 609.774 4.512C609.177 4.512 608.643 4.65067 608.174 4.928C607.705 5.19467 607.331 5.57333 607.054 6.064C606.777 6.55467 606.638 7.13067 606.638 7.792C606.638 8.44267 606.777 9.01867 607.054 9.52C607.331 10.0107 607.705 10.3947 608.174 10.672C608.643 10.9387 609.171 11.072 609.758 11.072ZM620.653 3.52C621.336 3.52 621.933 3.65333 622.445 3.92C622.968 4.176 623.373 4.57067 623.661 5.104C623.96 5.63733 624.109 6.30933 624.109 7.12V12H622.973V7.232C622.973 6.34667 622.749 5.68 622.301 5.232C621.864 4.77333 621.245 4.544 620.445 4.544C619.848 4.544 619.325 4.66667 618.877 4.912C618.44 5.14667 618.099 5.49333 617.853 5.952C617.619 6.4 617.501 6.944 617.501 7.584V12H616.365V3.6H617.453V5.904L617.277 5.472C617.544 4.864 617.971 4.38933 618.557 4.048C619.144 3.696 619.843 3.52 620.653 3.52ZM629.434 12.08C628.74 12.08 628.084 11.984 627.466 11.792C626.847 11.5893 626.362 11.3387 626.01 11.04L626.522 10.144C626.863 10.4 627.3 10.624 627.834 10.816C628.367 10.9973 628.927 11.088 629.514 11.088C630.314 11.088 630.89 10.9653 631.242 10.72C631.594 10.464 631.77 10.128 631.77 9.712C631.77 9.40267 631.668 9.16267 631.466 8.992C631.274 8.81067 631.018 8.67733 630.698 8.592C630.378 8.496 630.02 8.416 629.626 8.352C629.231 8.288 628.836 8.21333 628.442 8.128C628.058 8.04267 627.706 7.92 627.386 7.76C627.066 7.58933 626.804 7.36 626.602 7.072C626.41 6.784 626.314 6.4 626.314 5.92C626.314 5.46133 626.442 5.05067 626.698 4.688C626.954 4.32533 627.327 4.04267 627.818 3.84C628.319 3.62667 628.927 3.52 629.642 3.52C630.186 3.52 630.73 3.59467 631.274 3.744C631.818 3.88267 632.266 4.06933 632.618 4.304L632.122 5.216C631.748 4.96 631.348 4.77867 630.922 4.672C630.495 4.55467 630.068 4.496 629.642 4.496C628.884 4.496 628.324 4.62933 627.962 4.896C627.61 5.152 627.434 5.48267 627.434 5.888C627.434 6.208 627.53 6.45867 627.722 6.64C627.924 6.82133 628.186 6.96533 628.506 7.072C628.836 7.168 629.194 7.248 629.578 7.312C629.972 7.376 630.362 7.456 630.746 7.552C631.14 7.63733 631.498 7.76 631.818 7.92C632.148 8.06933 632.41 8.288 632.602 8.576C632.804 8.85333 632.906 9.22133 632.906 9.68C632.906 10.1707 632.767 10.5973 632.49 10.96C632.223 11.312 631.828 11.5893 631.306 11.792C630.794 11.984 630.17 12.08 629.434 12.08ZM643.605 15.104V0.127999H644.661V15.104H643.605ZM657.739 5.808H663.659V6.816H657.739V5.808ZM657.867 10.976H664.603V12H656.683V0.799999H664.363V1.824H657.867V10.976ZM669.135 12L665.407 3.6H666.591L670.015 11.392H669.455L672.927 3.6H674.047L670.303 12H669.135ZM675.647 12V3.6H676.783V12H675.647ZM676.223 1.744C675.988 1.744 675.791 1.664 675.631 1.504C675.471 1.344 675.391 1.152 675.391 0.927999C675.391 0.703999 675.471 0.517332 675.631 0.367999C675.791 0.207999 675.988 0.127999 676.223 0.127999C676.457 0.127999 676.655 0.202666 676.815 0.351999C676.975 0.501333 677.055 0.687999 677.055 0.912C677.055 1.14667 676.975 1.344 676.815 1.504C676.665 1.664 676.468 1.744 676.223 1.744ZM683.287 12.08C682.487 12.08 681.767 11.8987 681.127 11.536C680.498 11.1733 680.002 10.672 679.639 10.032C679.277 9.38133 679.095 8.63467 679.095 7.792C679.095 6.93867 679.277 6.192 679.639 5.552C680.002 4.912 680.498 4.416 681.127 4.064C681.767 3.70133 682.487 3.52 683.287 3.52C684.023 3.52 684.679 3.68533 685.255 4.016C685.842 4.34667 686.306 4.832 686.647 5.472C686.999 6.10133 687.175 6.87467 687.175 7.792C687.175 8.69867 687.005 9.472 686.663 10.112C686.322 10.752 685.858 11.2427 685.271 11.584C684.695 11.9147 684.034 12.08 683.287 12.08ZM683.367 11.072C683.965 11.072 684.498 10.9387 684.967 10.672C685.447 10.3947 685.821 10.0107 686.087 9.52C686.365 9.01867 686.503 8.44267 686.503 7.792C686.503 7.13067 686.365 6.55467 686.087 6.064C685.821 5.57333 685.447 5.19467 684.967 4.928C684.498 4.65067 683.965 4.512 683.367 4.512C682.781 4.512 682.253 4.65067 681.783 4.928C681.314 5.19467 680.941 5.57333 680.663 6.064C680.386 6.55467 680.247 7.13067 680.247 7.792C680.247 8.44267 680.386 9.01867 680.663 9.52C680.941 10.0107 681.314 10.3947 681.783 10.672C682.253 10.9387 682.781 11.072 683.367 11.072ZM686.535 12V9.472L686.647 7.776L686.487 6.08V0.127999H687.623V12H686.535ZM694.355 12.08C693.48 12.08 692.712 11.8987 692.051 11.536C691.39 11.1627 690.872 10.656 690.499 10.016C690.126 9.36533 689.939 8.624 689.939 7.792C689.939 6.96 690.115 6.224 690.467 5.584C690.83 4.944 691.32 4.44267 691.939 4.08C692.568 3.70667 693.272 3.52 694.051 3.52C694.84 3.52 695.539 3.70133 696.147 4.064C696.766 4.416 697.251 4.91733 697.603 5.568C697.955 6.208 698.131 6.94933 698.131 7.792C698.131 7.84533 698.126 7.904 698.115 7.968C698.115 8.02133 698.115 8.08 698.115 8.144H690.803V7.296H697.507L697.059 7.632C697.059 7.024 696.926 6.48533 696.659 6.016C696.403 5.536 696.051 5.16267 695.603 4.896C695.155 4.62933 694.638 4.496 694.051 4.496C693.475 4.496 692.958 4.62933 692.499 4.896C692.04 5.16267 691.683 5.536 691.427 6.016C691.171 6.496 691.043 7.04533 691.043 7.664V7.84C691.043 8.48 691.182 9.04533 691.459 9.536C691.747 10.016 692.142 10.3947 692.643 10.672C693.155 10.9387 693.736 11.072 694.387 11.072C694.899 11.072 695.374 10.9813 695.811 10.8C696.259 10.6187 696.643 10.3413 696.963 9.968L697.603 10.704C697.23 11.152 696.76 11.4933 696.195 11.728C695.64 11.9627 695.027 12.08 694.355 12.08ZM704.731 3.52C705.414 3.52 706.011 3.65333 706.523 3.92C707.046 4.176 707.451 4.57067 707.739 5.104C708.038 5.63733 708.187 6.30933 708.187 7.12V12H707.051V7.232C707.051 6.34667 706.827 5.68 706.379 5.232C705.942 4.77333 705.323 4.544 704.523 4.544C703.926 4.544 703.403 4.66667 702.955 4.912C702.518 5.14667 702.177 5.49333 701.931 5.952C701.697 6.4 701.579 6.944 701.579 7.584V12H700.443V3.6H701.531V5.904L701.355 5.472C701.622 4.864 702.049 4.38933 702.635 4.048C703.222 3.696 703.921 3.52 704.731 3.52Z" fill="black"/>
</svg>
