<svg width="75" height="75" viewBox="0 0 75 75" fill="none" xmlns="http://www.w3.org/2000/svg">
<g clip-path="url(#clip0_144_1970)">
<path d="M74.9998 52.9645C74.9998 48.5758 73.6856 44.3382 71.1989 40.7096C69.4103 38.0997 67.107 35.9324 64.4379 34.3218C67.5804 31.3458 69.5466 27.1396 69.5466 22.4801C69.5466 13.4829 62.2267 6.16296 53.2297 6.16296C47.8947 6.16296 42.8971 8.80147 39.8615 13.1327C39.0902 13.0204 38.3021 12.9598 37.4999 12.9598C36.6977 12.9598 35.9098 13.0206 35.1384 13.1327C32.1027 8.80147 27.1051 6.16296 21.7703 6.16296C12.7731 6.16296 5.4532 13.4829 5.4532 22.4801C5.4532 27.1396 7.4194 31.3458 10.5621 34.3218C7.89278 35.9322 5.58952 38.0997 3.80111 40.7094C1.31442 44.3382 0 48.5758 0 52.9645V62.0404H15.7298V68.837H59.2704V62.0404H75V52.9645H74.9998ZM53.2297 10.1902C60.0064 10.1902 65.5196 15.7034 65.5196 22.4803C65.5196 29.2572 60.0064 34.7704 53.2297 34.7704C53.1083 34.7704 52.9868 34.7686 52.8652 34.7649C52.8745 34.7392 52.8821 34.7128 52.8912 34.687C53.101 34.0922 53.276 33.4813 53.4163 32.8573C53.4262 32.813 53.4375 32.7691 53.4469 32.7246C53.4834 32.5563 53.5154 32.3864 53.5466 32.216C53.5613 32.1355 53.5764 32.0552 53.5899 31.9744C53.6153 31.8224 53.6382 31.6698 53.6594 31.5165C53.6741 31.41 53.6873 31.3035 53.7 31.1968C53.7159 31.0615 53.7314 30.926 53.7441 30.7897C53.757 30.6505 53.7667 30.5112 53.7759 30.3717C53.7832 30.2617 53.7923 30.1522 53.7973 30.0416C53.8084 29.8046 53.8146 29.5673 53.8154 29.3297C53.8154 29.3121 53.8168 29.295 53.8168 29.2773C53.8168 29.2678 53.816 29.2584 53.816 29.2489C53.8156 29.0063 53.8086 28.7651 53.7977 28.5247C53.7945 28.4548 53.7902 28.3851 53.7862 28.3154C53.7743 28.1111 53.7588 27.9077 53.7397 27.7054C53.7353 27.6594 53.7316 27.6135 53.727 27.5678C53.1185 21.6866 49.403 16.6526 44.043 14.3241C46.3527 11.7293 49.6935 10.1902 53.2297 10.1902ZM33.2476 17.7453C33.2868 17.731 33.3265 17.7175 33.3657 17.7034C33.488 17.6597 33.6112 17.6183 33.735 17.5782C33.8289 17.5482 33.9233 17.5192 34.0183 17.4914C34.0874 17.4711 34.1567 17.4515 34.2261 17.4322C34.3502 17.3982 34.4748 17.365 34.6006 17.3345C35.5309 17.1086 36.501 16.986 37.4995 16.986C38.4988 16.9868 39.4693 17.1096 40.3998 17.3356C40.5248 17.3658 40.6486 17.3988 40.7721 17.4326C40.8425 17.4521 40.913 17.4719 40.9829 17.4926C41.0767 17.5202 41.1701 17.5488 41.263 17.5784C41.3884 17.6189 41.513 17.6607 41.6367 17.705C41.6747 17.7185 41.7128 17.7314 41.7506 17.7453C45.8608 19.2653 48.9425 22.9233 49.64 27.3625C49.6454 27.3979 49.6507 27.4335 49.6559 27.4692C49.6782 27.6196 49.697 27.7712 49.7137 27.9232C49.7197 27.9792 49.7262 28.035 49.7316 28.0911C49.7449 28.2299 49.7548 28.3696 49.7636 28.5098C49.7672 28.5698 49.7723 28.6296 49.7751 28.6898C49.7835 28.8688 49.7882 29.0488 49.7888 29.2298C49.7888 29.2455 49.7898 29.2608 49.7898 29.2765C49.7898 29.2837 49.7894 29.2912 49.7894 29.2984C49.789 29.4736 49.7837 29.6476 49.7761 29.821C49.7737 29.8755 49.7713 29.9301 49.768 29.9845C49.7586 30.152 49.7461 30.3187 49.73 30.4842C49.7237 30.5482 49.7153 30.6121 49.708 30.6759C49.6958 30.783 49.6821 30.8899 49.6672 30.9962C49.6555 31.079 49.6438 31.162 49.6305 31.2443C49.6102 31.3698 49.5876 31.4944 49.5635 31.6186C49.5419 31.7292 49.5184 31.8393 49.4938 31.9492C49.4791 32.0155 49.4638 32.0817 49.4479 32.1476C49.4086 32.3109 49.3655 32.4732 49.3196 32.6348C49.3013 32.6991 49.2842 32.7637 49.2649 32.8273C49.2369 32.92 49.2067 33.0118 49.1767 33.1036C49.1525 33.1771 49.1277 33.2502 49.1022 33.3231C49.0732 33.4058 49.0446 33.4888 49.014 33.5709C48.9618 33.7105 48.9071 33.8488 48.8501 33.9859C48.8247 34.0471 48.7977 34.1077 48.7714 34.1687C48.7216 34.2829 48.6705 34.3965 48.6173 34.5088C48.6111 34.5221 48.6048 34.5354 48.5986 34.5487C48.5795 34.5886 48.5605 34.6286 48.541 34.6685C48.4814 34.7901 48.4194 34.9103 48.3558 35.0295C48.331 35.0758 48.307 35.1227 48.2817 35.1689C48.2801 35.1719 48.2784 35.1747 48.2768 35.1775C48.2072 35.3044 48.1345 35.4292 48.0606 35.5532C48.0312 35.6024 48.0022 35.6517 47.9722 35.7002C47.8916 35.8309 47.8089 35.9602 47.7237 36.0874C47.6708 36.1665 47.6154 36.2441 47.5606 36.322C47.5141 36.388 47.4678 36.4543 47.4201 36.5193C47.3583 36.6035 47.2952 36.6866 47.2312 36.7694C47.1877 36.8256 47.1438 36.8813 47.0995 36.9369C47.0319 37.0215 46.9636 37.1056 46.8939 37.1884C46.8507 37.2397 46.8062 37.2901 46.7621 37.3406C46.6896 37.4238 46.6173 37.5071 46.5428 37.5883C46.4985 37.6364 46.4526 37.6827 46.4075 37.7302C46.2863 37.8581 46.1622 37.9831 46.0358 38.1058C45.9607 38.1785 45.886 38.2513 45.8091 38.322C45.7559 38.3709 45.7013 38.4185 45.6472 38.4666C45.559 38.5449 45.4702 38.6224 45.3798 38.6981C45.3339 38.7366 45.2876 38.7747 45.2411 38.8125C45.1317 38.9015 45.021 38.9887 44.9084 39.0741C44.8778 39.0972 44.8476 39.1208 44.8168 39.1437C42.7711 40.6645 40.2389 41.566 37.4997 41.566C34.7603 41.566 32.2277 40.6643 30.182 39.1431C30.1518 39.1206 30.1222 39.0974 30.0922 39.0747C29.9792 38.9891 29.8679 38.9013 29.7581 38.8119C29.712 38.7743 29.6659 38.7366 29.6204 38.6983C29.5296 38.6222 29.4406 38.5443 29.352 38.4658C29.2982 38.4179 29.2439 38.3707 29.1909 38.322C29.1138 38.2511 29.0389 38.178 28.9636 38.1054C28.8365 37.9823 28.7123 37.8569 28.5907 37.7286C28.5462 37.6817 28.5007 37.636 28.457 37.5885C28.3823 37.5071 28.31 37.4236 28.2375 37.3404C28.1934 37.2899 28.1491 37.2397 28.1058 37.1884C28.036 37.1056 27.9679 37.0215 27.9003 36.9371C27.856 36.8815 27.8119 36.8258 27.7684 36.7694C27.7046 36.6868 27.6415 36.6037 27.5797 36.5195C27.532 36.4543 27.4855 36.3878 27.439 36.3216C27.3842 36.2439 27.329 36.1665 27.2763 36.0876C27.1907 35.9598 27.1075 35.8301 27.0268 35.699C26.9972 35.6509 26.9686 35.6024 26.9396 35.5538C26.8645 35.428 26.791 35.3015 26.7203 35.1729C26.6944 35.1256 26.6698 35.0774 26.6442 35.0299C26.5806 34.9103 26.5184 34.7897 26.4586 34.6679C26.4372 34.6246 26.4165 34.5809 26.3958 34.5374C26.3925 34.5308 26.3895 34.5241 26.3865 34.5175C26.3307 34.3999 26.2774 34.2811 26.2252 34.1613C26.2005 34.1043 26.1753 34.0475 26.1515 33.9903C26.0931 33.8502 26.0374 33.7089 25.984 33.5663C25.9552 33.4894 25.9286 33.4117 25.9014 33.3341C25.8735 33.2546 25.8465 33.1745 25.8201 33.0941C25.7917 33.0071 25.7631 32.9202 25.7365 32.8328C25.6969 32.7021 25.6594 32.5706 25.6242 32.4383C25.5994 32.3455 25.5771 32.2519 25.5543 32.1584C25.5366 32.085 25.5195 32.0115 25.5032 31.9376C25.483 31.847 25.4627 31.7565 25.4446 31.6655C25.4166 31.5238 25.391 31.3812 25.3681 31.2379C25.3556 31.1605 25.3447 31.083 25.3336 31.0057C25.3173 30.8911 25.3026 30.776 25.2895 30.6604C25.2831 30.6034 25.2756 30.5464 25.2698 30.4894C25.2531 30.3197 25.2404 30.1488 25.2307 29.9772C25.2279 29.9279 25.2257 29.8785 25.2235 29.8292C25.2152 29.6458 25.2094 29.4617 25.2094 29.2765C25.2094 29.078 25.215 28.8808 25.2245 28.6845C25.2271 28.6312 25.2316 28.5782 25.2346 28.5251C25.2434 28.3777 25.2541 28.2307 25.2682 28.0845C25.273 28.0336 25.2789 27.9828 25.2843 27.9321C25.3016 27.7738 25.3212 27.6164 25.3445 27.4599C25.3489 27.4295 25.3534 27.3989 25.3582 27.3685C26.0535 22.9267 29.1358 19.2663 33.2476 17.7453ZM9.48023 22.4803C9.48023 15.7036 14.9934 10.1902 21.7703 10.1902C25.3067 10.1902 28.6473 11.7295 30.957 14.3237C25.5952 16.653 21.8789 21.6894 21.2722 27.5731C21.268 27.6129 21.2649 27.653 21.2611 27.6931C21.241 27.9027 21.2251 28.1131 21.213 28.3247C21.2094 28.3891 21.2053 28.4534 21.2023 28.518C21.1908 28.7699 21.183 29.0226 21.183 29.2771C21.183 29.534 21.1904 29.7903 21.2025 30.0465C21.2073 30.1496 21.2158 30.2516 21.2224 30.3541C21.2323 30.5015 21.2424 30.6489 21.2561 30.7959C21.2682 30.9266 21.2831 31.0564 21.2984 31.1863C21.3116 31.2995 21.3257 31.4122 21.3414 31.525C21.362 31.673 21.3841 31.8204 21.4085 31.9672C21.4232 32.0543 21.4393 32.1413 21.4552 32.2283C21.4854 32.3926 21.5162 32.5565 21.5513 32.719C21.5629 32.7726 21.5762 32.8257 21.5883 32.8791C21.725 33.4837 21.8948 34.0757 22.0969 34.653C22.1098 34.6902 22.1211 34.7279 22.1342 34.7649C22.0127 34.7686 21.8911 34.7704 21.7699 34.7704C14.9934 34.7702 9.48023 29.257 9.48023 22.4803ZM19.1058 48.1528C19.0615 48.2227 19.0193 48.2937 18.9758 48.364C18.8837 48.5126 18.7925 48.6616 18.7043 48.812C18.655 48.896 18.6075 48.9806 18.5596 49.0651C18.4802 49.2047 18.4019 49.3446 18.3258 49.4857C18.2779 49.5745 18.2308 49.6637 18.1841 49.7529C18.1108 49.8933 18.0393 50.0344 17.9692 50.176C17.9251 50.265 17.8812 50.3538 17.8385 50.4432C17.7673 50.5924 17.6986 50.7428 17.6307 50.8934C17.5939 50.9753 17.556 51.0567 17.5204 51.139C17.4419 51.3195 17.367 51.5013 17.2935 51.6837C17.2719 51.7371 17.249 51.7898 17.228 51.8432C17.1348 52.0802 17.0456 52.3188 16.961 52.5586C16.9417 52.6135 16.9244 52.6691 16.9053 52.7241C16.8416 52.9089 16.7796 53.0944 16.721 53.2806C16.6943 53.3662 16.6695 53.4522 16.6437 53.5379C16.5964 53.6958 16.5499 53.8539 16.5062 54.0129C16.4802 54.1076 16.4554 54.2024 16.4307 54.2974C16.3908 54.4501 16.3526 54.6031 16.3163 54.7567C16.2932 54.854 16.2706 54.9512 16.2491 55.0487C16.2144 55.2043 16.182 55.3606 16.1508 55.517C16.1321 55.6111 16.1127 55.7051 16.0952 55.7995C16.0636 55.9699 16.0352 56.141 16.0076 56.3124C15.9948 56.3929 15.9805 56.473 15.9684 56.5536C15.9309 56.8053 15.8969 57.0576 15.8683 57.3111C15.8679 57.3141 15.8677 57.3171 15.8675 57.3201C15.8415 57.5507 15.8192 57.7816 15.8005 58.0134H4.02703V52.9645C4.02703 46.0666 7.99244 39.874 14.2049 36.9307C16.4681 38.1203 19.0408 38.7974 21.7701 38.7974C22.5594 38.7974 23.3511 38.739 24.1368 38.6234C24.2592 38.798 24.3837 38.9708 24.5125 39.1403C24.556 39.1973 24.6011 39.2529 24.6454 39.3092C24.7727 39.4719 24.9017 39.6328 25.035 39.7905C25.0896 39.8551 25.1456 39.9183 25.2011 39.9822C25.326 40.1255 25.4528 40.2671 25.5825 40.4058C25.6506 40.4789 25.7198 40.5508 25.7891 40.6227C25.9077 40.7449 26.0279 40.8653 26.1501 40.9839C26.196 41.0284 26.2393 41.0755 26.2856 41.1196C26.1107 41.2253 25.9373 41.3336 25.7655 41.4442C25.7375 41.4621 25.7102 41.481 25.6824 41.4991C25.5106 41.6107 25.3407 41.7247 25.1724 41.8408C25.1142 41.8811 25.0562 41.9218 24.9982 41.9624C24.8482 42.0682 24.6998 42.1757 24.5526 42.285C24.5061 42.3196 24.459 42.3535 24.4129 42.3885C24.2256 42.5301 24.0406 42.6742 23.8579 42.8216C23.8181 42.8538 23.779 42.8871 23.7391 42.9197C23.5938 43.0387 23.4498 43.1597 23.3076 43.2825C23.2525 43.33 23.1977 43.378 23.1429 43.4261C23.0006 43.5515 22.86 43.6788 22.7209 43.8078C22.6847 43.8415 22.6476 43.8745 22.6116 43.9085C22.4408 44.0692 22.2727 44.2329 22.107 44.3994C22.0639 44.4427 22.0218 44.4868 21.9791 44.5303C21.8523 44.6598 21.7268 44.7906 21.603 44.9233C21.5539 44.9761 21.5047 45.0288 21.456 45.0822C21.3167 45.2344 21.1794 45.3886 21.0442 45.5451C21.0231 45.5697 21.0012 45.5934 20.98 45.6182C20.826 45.798 20.6754 45.9812 20.5268 46.1663C20.4853 46.2178 20.4448 46.2702 20.404 46.3223C20.2922 46.4643 20.1821 46.6076 20.0737 46.7524C20.0319 46.8084 19.9898 46.8639 19.9485 46.9203C19.8067 47.1136 19.6668 47.3085 19.5309 47.5069C19.3849 47.7199 19.2436 47.9355 19.1058 48.1528ZM19.7568 64.8102V62.0406V59.7613C19.7568 59.5378 19.761 59.3151 19.7693 59.093C19.7719 59.0199 19.7777 58.9475 19.7814 58.8746C19.7886 58.7264 19.7955 58.578 19.8063 58.4304C19.813 58.3408 19.8231 58.252 19.8311 58.1626C19.8428 58.0325 19.8533 57.9022 19.8678 57.773C19.8784 57.6783 19.8923 57.5843 19.9044 57.4899C19.9201 57.3668 19.9348 57.2436 19.9529 57.1212C19.9676 57.0237 19.9853 56.9271 20.0014 56.83C20.0212 56.712 20.0395 56.5937 20.0617 56.4763C20.0804 56.377 20.1021 56.2787 20.1225 56.1799C20.1458 56.0659 20.1682 55.9515 20.1937 55.8384C20.2163 55.7385 20.2421 55.6397 20.2662 55.5402C20.2934 55.4294 20.3194 55.3181 20.3486 55.208C20.3752 55.1079 20.4046 55.0088 20.4327 54.9095C20.4633 54.8014 20.4931 54.6931 20.5258 54.5858C20.5562 54.4859 20.5896 54.3868 20.6216 54.2876C20.6558 54.1823 20.6891 54.0768 20.7251 53.9723C20.7593 53.8734 20.7962 53.7753 20.832 53.6773C20.8699 53.5738 20.9069 53.4699 20.9466 53.3672C20.9844 53.2695 21.0247 53.1731 21.064 53.076C21.1053 52.9748 21.1459 52.8729 21.189 52.7724C21.2307 52.6756 21.2746 52.5797 21.3179 52.4839C21.3624 52.385 21.4065 52.2857 21.4528 52.1879C21.4981 52.0922 21.5456 51.9978 21.5925 51.903C21.6404 51.8063 21.6878 51.7095 21.7373 51.6138C21.7862 51.5196 21.8372 51.4266 21.8877 51.3333C21.9389 51.2389 21.9894 51.1445 22.0421 51.0511C22.0945 50.9584 22.1489 50.8672 22.2026 50.7756C22.257 50.6834 22.311 50.591 22.3671 50.4995C22.4229 50.4087 22.4805 50.3193 22.5379 50.2295C22.5955 50.1395 22.6526 50.0495 22.7118 49.9605C22.771 49.8715 22.8318 49.7837 22.8927 49.696C22.9533 49.6084 23.0137 49.5208 23.0757 49.4342C23.1381 49.3472 23.2023 49.2614 23.2666 49.1755C23.3302 49.0903 23.3936 49.0051 23.4587 48.9212C23.5243 48.8364 23.5915 48.7528 23.6588 48.6691C23.7254 48.5861 23.7923 48.5034 23.8603 48.4216C23.929 48.3395 23.9991 48.2583 24.0692 48.1774C24.139 48.0966 24.2091 48.0159 24.2806 47.9361C24.352 47.8564 24.4251 47.7779 24.498 47.6994C24.5709 47.621 24.6438 47.5431 24.7181 47.4662C24.7926 47.3889 24.8685 47.3128 24.9446 47.2368C25.0205 47.1609 25.0968 47.0854 25.1742 47.0107C25.2513 46.9364 25.3296 46.8631 25.4083 46.7901C25.4873 46.7168 25.5666 46.6437 25.6469 46.5716C25.7271 46.4999 25.808 46.4292 25.8896 46.359C25.9713 46.2883 26.0537 46.218 26.1368 46.1487C26.2196 46.0799 26.3031 46.012 26.3873 45.9446C26.4721 45.8765 26.5575 45.8091 26.6436 45.7424C26.7288 45.6768 26.8148 45.6119 26.9012 45.5475C26.9889 45.4821 27.0773 45.4174 27.1667 45.3536C27.2541 45.291 27.3423 45.2294 27.4311 45.1682C27.5221 45.1055 27.6135 45.0437 27.7058 44.9827C27.7954 44.9235 27.8858 44.8649 27.9766 44.8071C28.0706 44.7473 28.1652 44.6883 28.2605 44.6304C28.3523 44.5744 28.4447 44.519 28.5377 44.4646C28.6344 44.4081 28.7318 44.3523 28.8299 44.2973C28.9239 44.2446 29.0186 44.1924 29.1138 44.1413C29.2135 44.0877 29.314 44.0352 29.415 43.9832C29.5109 43.9339 29.6071 43.8854 29.7042 43.8376C29.7805 43.8002 29.8576 43.7639 29.9347 43.7275C32.1977 44.9171 34.7708 45.594 37.4999 45.594C40.2292 45.594 42.8021 44.9171 45.0651 43.7275C45.1416 43.7637 45.2181 43.7998 45.2938 43.8368C45.3921 43.8852 45.4893 43.9343 45.5864 43.984C45.6862 44.0354 45.7857 44.0873 45.8844 44.1403C45.9806 44.192 46.0763 44.2448 46.1713 44.2981C46.2682 44.3525 46.3644 44.4075 46.4598 44.4634C46.5543 44.5186 46.6479 44.5748 46.7409 44.6316C46.835 44.6889 46.9282 44.7469 47.0208 44.8059C47.113 44.8645 47.2044 44.9237 47.2952 44.9839C47.3865 45.0441 47.4769 45.1053 47.5667 45.1672C47.6563 45.229 47.7455 45.2912 47.8339 45.3544C47.9223 45.4176 48.0096 45.4817 48.0966 45.5465C48.184 45.6113 48.2708 45.6768 48.3568 45.7432C48.4421 45.8093 48.5267 45.8761 48.6109 45.9436C48.6954 46.0114 48.7796 46.0797 48.863 46.1489C48.9457 46.2178 49.0275 46.2877 49.1088 46.3579C49.1908 46.4286 49.2723 46.4997 49.3529 46.572C49.4326 46.6435 49.5113 46.716 49.5896 46.7886C49.669 46.8623 49.7481 46.9364 49.826 47.0115C49.9027 47.0854 49.9783 47.1603 50.0534 47.2354C50.1299 47.312 50.2064 47.3887 50.2815 47.4664C50.3552 47.5429 50.4279 47.6202 50.5002 47.6979C50.5738 47.7771 50.6473 47.8564 50.7194 47.9367C50.7903 48.0157 50.8598 48.0956 50.929 48.1758C50.9997 48.2573 51.0704 48.339 51.1394 48.422C51.2073 48.5031 51.2735 48.5855 51.3398 48.6679C51.4074 48.752 51.4751 48.836 51.5411 48.9214C51.606 49.0049 51.669 49.0897 51.7322 49.1745C51.7967 49.2606 51.8611 49.347 51.9239 49.4344C51.9857 49.5204 52.0459 49.6078 52.1061 49.695C52.1671 49.7831 52.2284 49.8713 52.2878 49.9607C52.3465 50.0491 52.4033 50.1385 52.4605 50.2279C52.5183 50.3183 52.5763 50.4085 52.6325 50.5C52.688 50.5904 52.7416 50.6822 52.7956 50.7736C52.8499 50.8658 52.9047 50.9578 52.9572 51.0511C53.0098 51.1441 53.0601 51.2383 53.1111 51.3321C53.1618 51.4258 53.213 51.5192 53.2619 51.6136C53.3114 51.7091 53.3585 51.8059 53.4065 51.9024C53.4534 51.9972 53.5011 52.0918 53.5464 52.1877C53.5927 52.2855 53.6366 52.3844 53.6809 52.4831C53.7244 52.5795 53.7685 52.6754 53.8102 52.7726C53.8531 52.8723 53.8931 52.9732 53.9342 53.0738C53.9741 53.1717 54.0147 53.2691 54.0528 53.3678C54.0923 53.4699 54.1291 53.5732 54.1668 53.6763C54.2028 53.7747 54.2397 53.8728 54.2739 53.9721C54.3101 54.077 54.3436 54.1831 54.3778 54.2888C54.4098 54.3876 54.443 54.4861 54.4732 54.5858C54.506 54.6931 54.5356 54.8016 54.5664 54.9097C54.5946 55.009 54.624 55.1079 54.6506 55.208C54.6798 55.3181 54.7058 55.4292 54.733 55.5402C54.7573 55.6394 54.7829 55.7385 54.8054 55.8384C54.831 55.9515 54.8532 56.0657 54.8767 56.1795C54.8971 56.2783 54.9188 56.3768 54.9375 56.4763C54.9595 56.5926 54.9776 56.71 54.9973 56.8272C55.0136 56.9253 55.0318 57.0227 55.0465 57.1214C55.0646 57.2428 55.0791 57.3652 55.0948 57.4872C55.1071 57.5825 55.1212 57.6771 55.1318 57.7728C55.1463 57.902 55.1568 58.0323 55.1685 58.1624C55.1765 58.2518 55.1866 58.3406 55.1933 58.4302C55.2043 58.5778 55.211 58.7264 55.2182 58.8748C55.2218 58.9475 55.2277 59.0199 55.2303 59.0928C55.2386 59.3149 55.2428 59.5376 55.2428 59.7611V62.0402V64.8102H19.7568ZM59.2004 58.0134C59.1609 57.5229 59.1041 57.0354 59.032 56.551C59.0205 56.4742 59.0069 56.3981 58.9946 56.3216C58.9666 56.1462 58.9374 55.9713 58.905 55.7969C58.8879 55.7051 58.8691 55.6137 58.8508 55.5221C58.8192 55.3628 58.7862 55.2039 58.7509 55.0457C58.7296 54.9502 58.7074 54.8548 58.6849 54.7597C58.648 54.6043 58.6094 54.4495 58.5691 54.295C58.5448 54.2014 58.5204 54.108 58.4946 54.0145C58.4505 53.8539 58.4034 53.694 58.3555 53.5343C58.3301 53.4502 58.3059 53.3658 58.2796 53.2818C58.2202 53.0928 58.1574 52.9047 58.0927 52.717C58.0746 52.6647 58.0581 52.6117 58.0396 52.5594C57.9546 52.3188 57.8654 52.0796 57.7718 51.8418C57.7516 51.7908 57.7297 51.7405 57.7091 51.6895C57.6348 51.5049 57.5587 51.3207 57.4792 51.1378C57.444 51.0567 57.4067 50.9765 57.3705 50.8958C57.302 50.7436 57.2327 50.592 57.1607 50.4414C57.1186 50.3532 57.0751 50.2656 57.0318 50.178C56.9611 50.035 56.8888 49.8927 56.8149 49.7511C56.7686 49.6625 56.7221 49.5743 56.6746 49.4863C56.5981 49.3448 56.5196 49.2043 56.4398 49.0641C56.3919 48.9799 56.3446 48.8958 56.2957 48.8122C56.2071 48.661 56.1154 48.5114 56.0228 48.362C55.9797 48.2923 55.9379 48.2221 55.894 48.153C55.756 47.9357 55.6147 47.7201 55.4685 47.5069C55.3324 47.3083 55.1925 47.1134 55.0507 46.9201C55.0096 46.8641 54.9677 46.8088 54.9263 46.7532C54.8173 46.6076 54.7068 46.4639 54.5946 46.3213C54.5542 46.27 54.5141 46.218 54.473 46.1671C54.3242 45.9814 54.173 45.7978 54.0186 45.6176C53.9984 45.5942 53.9777 45.5715 53.9576 45.5481C53.8214 45.3905 53.6829 45.235 53.5426 45.0816C53.4942 45.0288 53.4457 44.9767 53.397 44.9243C53.2726 44.7908 53.1463 44.6589 53.0187 44.5289C52.9766 44.486 52.9353 44.4427 52.8928 44.4002C52.7267 44.2335 52.558 44.0692 52.3868 43.9081C52.3516 43.8749 52.3153 43.8427 52.2799 43.8096C52.14 43.6798 51.9986 43.5519 51.8557 43.4259C51.8013 43.3779 51.7465 43.3304 51.6918 43.2829C51.5492 43.1599 51.4052 43.0389 51.2597 42.9197C51.22 42.8873 51.1811 42.854 51.1413 42.8218C50.9588 42.6744 50.7738 42.5303 50.5867 42.3889C50.54 42.3537 50.4925 42.3194 50.4456 42.2846C50.299 42.1759 50.1514 42.0688 50.002 41.9637C49.9434 41.9224 49.8848 41.8813 49.826 41.8406C49.6593 41.7257 49.4912 41.6129 49.3212 41.5026C49.2914 41.4832 49.2622 41.4631 49.2324 41.444C49.0609 41.3338 48.8881 41.2257 48.7134 41.1202C48.7585 41.0773 48.8008 41.0316 48.8452 40.9881C48.9701 40.8673 49.0927 40.7445 49.2135 40.6196C49.281 40.55 49.348 40.4801 49.4141 40.4092C49.546 40.2683 49.6744 40.1245 49.8013 39.9789C49.8552 39.9171 49.9094 39.8557 49.9623 39.7929C50.0975 39.633 50.2287 39.4697 50.3578 39.3044C50.4001 39.2504 50.4434 39.1973 50.4849 39.1427C50.6143 38.9726 50.7394 38.799 50.8624 38.6238C51.6481 38.7392 52.4398 38.7976 53.2291 38.7976C55.9584 38.7976 58.5313 38.1207 60.7942 36.9309C67.0069 39.8742 70.9722 46.0668 70.9722 52.9647V58.0134H59.2004Z" fill="black" fill-opacity="0.2"/>
</g>
<defs>
<clipPath id="clip0_144_1970">
<rect width="75" height="75" fill="white"/>
</clipPath>
</defs>
</svg>
